<svg width="107" height="107" viewBox="0 0 107 107" fill="none" xmlns="http://www.w3.org/2000/svg">
<path d="M53.5 6.6875C44.2414 6.6875 35.1907 9.43301 27.4924 14.5768C19.7941 19.7207 13.794 27.0318 10.2509 35.5856C6.70778 44.1395 5.78074 53.5519 7.58701 62.6327C9.39328 71.7134 13.8517 80.0546 20.3986 86.6014C26.9454 93.1483 35.2866 97.6067 44.3674 99.413C53.4481 101.219 62.8605 100.292 71.4144 96.7491C79.9683 93.206 87.2794 87.2059 92.4232 79.5076C97.567 71.8094 100.313 62.7586 100.313 53.5C100.313 41.0846 95.3805 29.1776 86.6015 20.3986C77.8224 11.6195 65.9155 6.6875 53.5 6.6875ZM53.5 93.625C45.5641 93.625 37.8063 91.2717 31.2078 86.8627C24.6092 82.4537 19.4663 76.1871 16.4294 68.8552C13.3924 61.5233 12.5978 53.4555 14.146 45.672C15.6942 37.8885 19.5158 30.7389 25.1274 25.1273C30.7389 19.5158 37.8885 15.6942 45.672 14.146C53.4555 12.5978 61.5233 13.3924 68.8552 16.4293C76.1871 19.4663 82.4538 24.6092 86.8628 31.2077C91.2717 37.8063 93.625 45.564 93.625 53.5C93.625 64.1418 89.3976 74.3478 81.8727 81.8727C74.3478 89.3976 64.1418 93.625 53.5 93.625Z" fill="#417C79"/>
<path d="M53.5 83.5938C56.2701 83.5938 58.5156 81.3482 58.5156 78.5781C58.5156 75.8081 56.2701 73.5625 53.5 73.5625C50.7299 73.5625 48.4844 75.8081 48.4844 78.5781C48.4844 81.3482 50.7299 83.5938 53.5 83.5938Z" fill="#417C79"/>
<path d="M56.8438 26.75H51.8282C49.8509 26.7456 47.8923 27.1318 46.0648 27.8864C44.2372 28.641 42.5767 29.7492 41.1786 31.1473C39.7805 32.5454 38.6723 34.206 37.9177 36.0335C37.1631 37.8611 36.7769 39.8197 36.7813 41.7969V43.4688H43.4688V41.7969C43.4688 39.5799 44.3495 37.4536 45.9172 35.8859C47.4849 34.3183 49.6111 33.4375 51.8282 33.4375H56.8438C59.0608 33.4375 61.1871 34.3183 62.7548 35.8859C64.3224 37.4536 65.2032 39.5799 65.2032 41.7969C65.2032 44.014 64.3224 46.1402 62.7548 47.7079C61.1871 49.2756 59.0608 50.1563 56.8438 50.1563H50.1563V65.2032H56.8438V56.8438C60.8345 56.8438 64.6617 55.2585 67.4835 52.4367C70.3054 49.6148 71.8907 45.7876 71.8907 41.7969C71.8907 37.8062 70.3054 33.979 67.4835 31.1572C64.6617 28.3353 60.8345 26.75 56.8438 26.75Z" fill="#417C79"/>
</svg>
