<svg width="42" height="42" viewBox="0 0 42 42" fill="none" xmlns="http://www.w3.org/2000/svg">
<path d="M36.7198 12.637C36.7182 12.0696 36.6664 11.5034 36.5649 10.9451C36.4517 10.2627 36.2362 9.6012 35.9258 8.98296C35.5853 8.33331 35.1421 7.74295 34.6133 7.23471C33.8153 6.45444 32.8299 5.89262 31.752 5.60327C30.7617 5.36327 29.7441 5.25471 28.7254 5.2804L28.7201 5.26465H13.2746V5.2804C12.6949 5.2757 12.1152 5.30155 11.5382 5.35784C10.9069 5.42534 10.2855 5.56539 9.68625 5.77521C8.69833 6.14724 7.81207 6.74699 7.09942 7.52577C6.38677 8.30456 5.86781 9.24043 5.58469 10.2574C5.34631 11.2391 5.23776 12.2478 5.26181 13.2578L5.25 28.7531C5.26005 29.4548 5.30781 30.1553 5.39306 30.8518C5.49827 31.5868 5.71561 32.3012 6.0375 32.9702C6.49198 33.8637 7.13879 34.6455 7.93144 35.2592C8.49781 35.7106 9.1394 36.0585 9.82669 36.2869C10.8357 36.5983 11.8866 36.7524 12.9426 36.7436C13.6041 36.7476 14.2643 36.7646 14.9244 36.762C19.7282 36.741 24.5306 36.7961 29.3331 36.7318C29.9676 36.718 30.5998 36.6508 31.2231 36.531C32.4009 36.3239 33.4971 35.791 34.3875 34.9928C35.4359 34.0825 36.1681 32.8627 36.4783 31.5094C36.6692 30.6033 36.7603 29.6791 36.75 28.7531V28.5681C36.75 28.4959 36.7238 12.8443 36.7198 12.637ZM32.5028 27.2123C32.3006 27.6848 31.2821 28.0746 29.5575 28.341C29.3961 28.3673 29.3278 28.6285 29.2346 29.0563C29.1953 29.2335 29.1559 29.4068 29.1034 29.5879C29.0876 29.6649 29.0442 29.7334 28.9813 29.7806C28.9184 29.8277 28.8405 29.8502 28.7621 29.8438H28.7359C28.5707 29.838 28.4064 29.8174 28.245 29.7821C27.8194 29.6928 27.3858 29.6466 26.9509 29.6443C26.6386 29.6452 26.327 29.6715 26.019 29.7231C25.3684 29.8878 24.7632 30.1968 24.2484 30.6274C23.3786 31.3701 22.2857 31.801 21.1431 31.852C21.0774 31.852 21.0144 31.8493 20.9672 31.8467C20.9288 31.8501 20.8902 31.8518 20.8517 31.852C19.7096 31.8017 18.617 31.3712 17.7476 30.6287C17.2324 30.1978 16.6268 29.8883 15.9758 29.7231C15.6678 29.6715 15.3561 29.6451 15.0439 29.6443C14.6091 29.6487 14.1759 29.6975 13.7511 29.79C13.5898 29.8278 13.4256 29.8515 13.2602 29.8609C13.1769 29.8702 13.0932 29.8482 13.0253 29.7992C12.9574 29.7502 12.9101 29.6777 12.8927 29.5958C12.8376 29.412 12.7982 29.2322 12.7614 29.0603C12.6669 28.6298 12.5987 28.3673 12.4373 28.3423C10.7139 28.0759 9.69413 27.6848 9.492 27.2096C9.47149 27.1622 9.4595 27.1116 9.45656 27.06C9.45243 26.9918 9.47377 26.9245 9.51646 26.8712C9.55914 26.8178 9.62012 26.7822 9.68756 26.7713C11.1134 26.5132 12.3983 25.7494 13.3061 24.6201C13.8058 24.0423 14.2212 23.3967 14.5399 22.7025L14.5451 22.6894C14.6391 22.5356 14.6984 22.3631 14.7188 22.184C14.7392 22.0049 14.7203 21.8235 14.6633 21.6525C14.4414 21.1275 13.7051 20.8952 13.2195 20.7403C13.1089 20.7074 12.9995 20.6706 12.8914 20.6301C12.4609 20.4595 11.7521 20.0998 11.8466 19.6024C11.919 19.4154 12.0479 19.2557 12.2155 19.1455C12.383 19.0354 12.5808 18.9804 12.7811 18.9881C12.8786 18.9859 12.9754 19.0051 13.0646 19.0446C13.4281 19.2306 13.8274 19.3358 14.2354 19.353C14.4776 19.3701 14.7175 19.2967 14.9087 19.147C14.8964 18.9168 14.8824 18.6871 14.8667 18.4579C14.645 16.9041 14.7396 15.3214 15.1449 13.8051C15.6217 12.7168 16.4085 11.7931 17.4071 11.1493C18.4057 10.5055 19.5718 10.1702 20.7598 10.1852L21.2244 10.1813C22.414 10.166 23.5818 10.5015 24.5819 11.1457C25.5821 11.7899 26.3704 12.7144 26.8485 13.8038C27.254 15.3214 27.3486 16.9054 27.1268 18.4605L27.1228 18.5353L27.0861 19.1483C27.2597 19.2859 27.4761 19.3584 27.6977 19.353C28.0818 19.3241 28.4565 19.2198 28.8002 19.0459C28.914 18.9964 29.037 18.9718 29.1611 18.9737C29.3019 18.9732 29.4414 19 29.5719 19.0525L29.5785 19.0551C29.7261 19.0906 29.8599 19.1692 29.9627 19.2809C30.0656 19.3926 30.1329 19.5324 30.156 19.6825C30.1613 19.924 29.9828 20.2836 29.1021 20.6314C28.9943 20.6717 28.8854 20.7084 28.7753 20.7416C28.2883 20.8965 27.5533 21.1301 27.3315 21.6538C27.2746 21.8246 27.2557 22.0058 27.2761 22.1847C27.2965 22.3635 27.3557 22.5358 27.4496 22.6894L27.4549 22.7025C27.8955 23.7087 28.5627 24.5995 29.4044 25.3053C30.2461 26.0111 31.2396 26.5128 32.3072 26.7713C32.3745 26.7825 32.4353 26.8182 32.4779 26.8714C32.5206 26.9247 32.542 26.9919 32.5382 27.06C32.5354 27.1125 32.5234 27.164 32.5028 27.2123Z" fill="white"/>
</svg>
