<svg width="42" height="42" viewBox="0 0 42 42" fill="none" xmlns="http://www.w3.org/2000/svg">
<path d="M35.0044 5.25H6.99562C6.53372 5.25343 6.0917 5.43845 5.76508 5.76508C5.43845 6.0917 5.25343 6.53372 5.25 6.99562V35.0044C5.25343 35.4663 5.43845 35.9083 5.76508 36.2349C6.0917 36.5615 6.53372 36.7466 6.99562 36.75H22.0763V24.57H17.9812V19.8056H22.0763V16.3013C22.0763 12.2325 24.5569 10.0144 28.2056 10.0144C29.4263 10.0144 30.6469 10.0144 31.8675 10.1981V14.4375H29.3606C27.3788 14.4375 26.9981 15.3825 26.9981 16.7606V19.7925H31.7231L31.1063 24.5569H26.9981V36.75H35.0044C35.4663 36.7466 35.9083 36.5615 36.2349 36.2349C36.5615 35.9083 36.7466 35.4663 36.75 35.0044V6.99562C36.7466 6.53372 36.5615 6.0917 36.2349 5.76508C35.9083 5.43845 35.4663 5.25343 35.0044 5.25Z" fill="white"/>
</svg>
