<svg width="33" height="35" viewBox="0 0 33 35" fill="none" xmlns="http://www.w3.org/2000/svg">
<path d="M28.875 7.32849H4.125C3.57799 7.32849 3.05339 7.55218 2.66659 7.95035C2.2798 8.34852 2.0625 8.88856 2.0625 9.45166V26.437C2.0625 27.0001 2.2798 27.5401 2.66659 27.9383C3.05339 28.3365 3.57799 28.5602 4.125 28.5602H28.875C29.422 28.5602 29.9466 28.3365 30.3334 27.9383C30.7202 27.5401 30.9375 27.0001 30.9375 26.437V9.45166C30.9375 8.88856 30.7202 8.34852 30.3334 7.95035C29.9466 7.55218 29.422 7.32849 28.875 7.32849ZM26.6062 9.45166L16.5 16.6492L6.39375 9.45166H26.6062ZM4.125 26.437V10.4177L15.9122 18.8148C16.0848 18.9381 16.2899 19.0042 16.5 19.0042C16.7101 19.0042 16.9152 18.9381 17.0878 18.8148L28.875 10.4177V26.437H4.125Z" fill="#417C79"/>
</svg>
