<svg width="33" height="35" viewBox="0 0 33 35" fill="none" xmlns="http://www.w3.org/2000/svg">
<path d="M16.5 20.0704C15.4802 20.0704 14.4833 19.7591 13.6353 19.1759C12.7874 18.5926 12.1265 17.7637 11.7362 16.7938C11.346 15.8239 11.2439 14.7566 11.4428 13.727C11.6418 12.6974 12.1329 11.7516 12.854 11.0092C13.5751 10.2669 14.4939 9.76139 15.4941 9.55658C16.4943 9.35178 17.531 9.45689 18.4732 9.85863C19.4154 10.2604 20.2207 10.9407 20.7873 11.8136C21.3538 12.6865 21.6563 13.7127 21.6563 14.7625C21.6546 16.1697 21.1108 17.5189 20.1442 18.5139C19.1776 19.509 17.867 20.0687 16.5 20.0704ZM16.5 11.5778C15.8881 11.5778 15.29 11.7645 14.7812 12.1145C14.2724 12.4644 13.8759 12.9618 13.6418 13.5438C13.4076 14.1257 13.3463 14.766 13.4657 15.3838C13.5851 16.0016 13.8797 16.5691 14.3124 17.0145C14.7451 17.4599 15.2963 17.7632 15.8964 17.8861C16.4966 18.009 17.1186 17.9459 17.6839 17.7048C18.2492 17.4638 18.7324 17.0556 19.0724 16.5319C19.4123 16.0081 19.5938 15.3924 19.5938 14.7625C19.5929 13.9181 19.2667 13.1086 18.6867 12.5115C18.1067 11.9144 17.3203 11.5786 16.5 11.5778Z" fill="#417C79"/>
<path d="M16.5 32.8094L7.80039 22.2477C7.67951 22.0891 7.55988 21.9295 7.44151 21.769C5.95546 19.7538 5.15266 17.2925 5.15626 14.7625C5.15626 11.6655 6.3514 8.69526 8.47877 6.50532C10.6061 4.31538 13.4915 3.08508 16.5 3.08508C19.5086 3.08508 22.3939 4.31538 24.5213 6.50532C26.6486 8.69526 27.8438 11.6655 27.8438 14.7625C27.8474 17.2913 27.0449 19.7516 25.5595 21.7658L25.5585 21.769C25.5585 21.769 25.2491 22.1872 25.2027 22.2435L16.5 32.8094ZM9.08739 20.4897C9.08945 20.4897 9.3287 20.8167 9.38336 20.8868L16.5 29.527L23.6259 20.8751C23.6713 20.8167 23.9126 20.4876 23.9137 20.4866C25.1276 18.8402 25.7836 16.8294 25.7813 14.7625C25.7813 12.2286 24.8034 9.7984 23.0628 8.00663C21.3223 6.21486 18.9616 5.20825 16.5 5.20825C14.0385 5.20825 11.6777 6.21486 9.93718 8.00663C8.19661 9.7984 7.21876 12.2286 7.21876 14.7625C7.2166 16.8307 7.87338 18.8426 9.08842 20.4897H9.08739Z" fill="#417C79"/>
</svg>
