<svg width="42" height="42" viewBox="0 0 42 42" fill="none" xmlns="http://www.w3.org/2000/svg">
<path d="M29.4078 14.4821C30.4516 14.4821 31.2978 13.636 31.2978 12.5921C31.2978 11.5483 30.4516 10.7021 29.4078 10.7021C28.364 10.7021 27.5178 11.5483 27.5178 12.5921C27.5178 13.636 28.364 14.4821 29.4078 14.4821Z" fill="white"/>
<path d="M21 12.9121C19.4004 12.9121 17.8367 13.3864 16.5067 14.2751C15.1767 15.1638 14.1401 16.4269 13.528 17.9047C12.9159 19.3826 12.7557 21.0087 13.0678 22.5776C13.3798 24.1464 14.1501 25.5875 15.2812 26.7185C16.4122 27.8496 17.8533 28.6199 19.4222 28.932C20.991 29.244 22.6172 29.0839 24.095 28.4717C25.5728 27.8596 26.8359 26.823 27.7246 25.493C28.6133 24.163 29.0876 22.5993 29.0876 20.9997C29.0876 18.8548 28.2355 16.7976 26.7188 15.2809C25.2021 13.7642 23.145 12.9121 21 12.9121ZM21 26.2497C19.9616 26.2497 18.9466 25.9418 18.0832 25.365C17.2199 24.7881 16.547 23.9681 16.1496 23.0088C15.7523 22.0495 15.6483 20.9939 15.8509 19.9755C16.0534 18.9571 16.5534 18.0216 17.2877 17.2874C18.0219 16.5532 18.9574 16.0532 19.9758 15.8506C20.9942 15.648 22.0498 15.752 23.0091 16.1494C23.9684 16.5467 24.7883 17.2196 25.3652 18.083C25.9421 18.9463 26.25 19.9614 26.25 20.9997C26.25 22.3921 25.6969 23.7275 24.7123 24.712C23.7277 25.6966 22.3924 26.2497 21 26.2497Z" fill="white"/>
<path d="M21 8.08763C25.2052 8.08763 25.704 8.10337 27.3643 8.1795C28.3629 8.19136 29.3521 8.37471 30.2886 8.72156C30.968 8.98366 31.585 9.38509 32.1 9.90003C32.6149 10.415 33.0163 11.032 33.2784 11.7114C33.6253 12.6479 33.8086 13.6371 33.8205 14.6357C33.8966 16.296 33.9124 16.7947 33.9124 21.0013C33.9124 25.2079 33.8966 25.704 33.8205 27.3643C33.8086 28.3629 33.6253 29.3521 33.2784 30.2886C33.0163 30.968 32.6149 31.585 32.1 32.1C31.585 32.6149 30.968 33.0163 30.2886 33.2784C29.3521 33.6253 28.3629 33.8086 27.3643 33.8205C25.704 33.8966 25.2052 33.9124 21 33.9124C16.7948 33.9124 16.296 33.8966 14.6357 33.8205C13.6371 33.8086 12.6479 33.6253 11.7114 33.2784C11.032 33.0163 10.415 32.6149 9.90003 32.1C9.38509 31.585 8.98366 30.968 8.72156 30.2886C8.37471 29.3521 8.19136 28.3629 8.1795 27.3643C8.10337 25.704 8.08763 25.2052 8.08763 21C8.08763 16.7948 8.10337 16.296 8.1795 14.6357C8.19136 13.6371 8.37471 12.6479 8.72156 11.7114C8.98366 11.032 9.38509 10.415 9.90003 9.90003C10.415 9.38509 11.032 8.98366 11.7114 8.72156C12.6479 8.37471 13.6371 8.19136 14.6357 8.1795C16.296 8.10337 16.7948 8.08763 21 8.08763ZM21 5.25C16.7226 5.25 16.1858 5.26838 14.5057 5.3445C13.1995 5.37088 11.9072 5.61851 10.6838 6.07688C9.63733 6.48152 8.68699 7.10033 7.89366 7.89366C7.10033 8.68699 6.48152 9.63733 6.07688 10.6838C5.61836 11.9076 5.37073 13.2004 5.3445 14.5071C5.26838 16.1871 5.25 16.7212 5.25 21C5.25 25.2787 5.26838 25.8142 5.3445 27.4942C5.37088 28.8005 5.61851 30.0928 6.07688 31.3162C6.48152 32.3627 7.10033 33.313 7.89366 34.1063C8.68699 34.8997 9.63733 35.5185 10.6838 35.9231C11.9076 36.3816 13.2004 36.6293 14.5071 36.6555C16.1871 36.7316 16.7226 36.75 21 36.75C25.2774 36.75 25.8142 36.7316 27.4942 36.6555C28.8009 36.6293 30.0937 36.3816 31.3176 35.9231C32.364 35.5185 33.3143 34.8997 34.1077 34.1063C34.901 33.313 35.5198 32.3627 35.9244 31.3162C36.3825 30.0923 36.6297 28.7995 36.6555 27.4929C36.7316 25.8129 36.75 25.2787 36.75 21C36.75 16.7212 36.7316 16.1858 36.6555 14.5057C36.6291 13.1995 36.3815 11.9072 35.9231 10.6838C35.5185 9.63733 34.8997 8.68699 34.1063 7.89366C33.313 7.10033 32.3627 6.48152 31.3162 6.07688C30.0923 5.61881 28.7995 5.37162 27.4929 5.34581C25.8129 5.26706 25.2787 5.25 21 5.25Z" fill="white"/>
</svg>
