<svg width="33" height="35" viewBox="0 0 33 35" fill="none" xmlns="http://www.w3.org/2000/svg">
<path d="M26.8125 31.7419H26.6372C6.37312 30.5423 3.49593 12.9413 3.09375 7.56966C3.06134 7.15201 3.10931 6.73189 3.2349 6.33335C3.36049 5.93482 3.56124 5.56571 3.82564 5.24718C4.09005 4.92865 4.41291 4.66696 4.77573 4.4771C5.13854 4.28724 5.53419 4.17294 5.94 4.14075H11.6222C12.0353 4.14034 12.4389 4.26762 12.7809 4.5061C13.1229 4.74459 13.3875 5.0833 13.5403 5.47834L15.1078 9.44867C15.2587 9.8346 15.2962 10.2577 15.2155 10.6653C15.1348 11.073 14.9396 11.4473 14.6541 11.7417L12.4575 14.0241C12.8006 16.0313 13.7344 17.8815 15.1325 19.3245C16.5305 20.7675 18.3254 21.7336 20.2744 22.0921L22.5122 19.8097C22.8025 19.519 23.1695 19.3227 23.5674 19.2453C23.9654 19.1679 24.3767 19.2128 24.75 19.3745L28.6378 20.9775C29.0158 21.1398 29.3383 21.4142 29.5642 21.7659C29.7901 22.1175 29.9091 22.5304 29.9062 22.952V28.5572C29.9062 29.4018 29.5803 30.2119 29.0001 30.8091C28.4199 31.4064 27.633 31.7419 26.8125 31.7419ZM6.1875 6.26392C5.91399 6.26392 5.65169 6.37576 5.45829 6.57485C5.2649 6.77393 5.15625 7.04395 5.15625 7.3255V7.41043C5.63062 13.695 8.67281 28.5572 26.7506 29.6188C26.8861 29.6274 27.0219 29.6084 27.1502 29.5628C27.2786 29.5173 27.3969 29.4462 27.4985 29.3535C27.6 29.2607 27.6828 29.1483 27.742 29.0226C27.8013 28.8969 27.8359 28.7604 27.8437 28.6209V22.952L23.9559 21.349L20.9962 24.3745L20.5012 24.3108C11.5294 23.1537 10.3125 13.9179 10.3125 13.8224L10.2506 13.3128L13.1794 10.2661L11.6325 6.26392H6.1875Z" fill="#417C79"/>
</svg>
