<svg width="133" height="115" viewBox="0 0 133 115" fill="none" xmlns="http://www.w3.org/2000/svg">
<path d="M132.297 0C132.297 0 24.812 4.58074 0 114.314L65.3593 114.644C65.3593 114.644 82.8431 73.6816 132.547 59.4448L132.297 0Z" fill="#417C79" fill-opacity="0.6"/>
<path d="M51.5371 68.2116C51.707 68.8111 51.717 68.841 51.7369 68.841C51.7569 68.841 51.7369 68.7961 51.8319 68.4914C51.9203 68.2479 51.979 67.9946 52.0067 67.7371C52.0067 67.6971 52.0067 67.6721 51.9517 67.6721C51.8968 67.6721 51.8718 67.6721 51.8718 67.6322C51.8729 67.6219 51.8775 67.6124 51.8847 67.6051C51.892 67.5978 51.9016 67.5933 51.9118 67.5922H52.1615C52.1915 67.5922 52.2015 67.5922 52.2015 67.6272C52.2015 67.6621 52.2015 67.6272 52.1366 67.6721C52.0716 67.7171 52.1066 67.6721 52.0716 67.832C51.9917 68.1017 51.8418 68.6762 51.7569 69.0558C51.722 69.2307 51.707 69.2457 51.672 69.2457C51.6175 69.0993 51.5741 68.949 51.5421 68.7961C51.2724 67.8719 51.2524 67.6871 51.1924 67.6721C51.1325 67.6571 51.1325 67.6372 51.1325 67.6322C51.1325 67.6272 51.1325 67.5922 51.1325 67.5922C51.1325 67.5922 51.1825 67.5922 51.2974 67.5922C51.4122 67.5922 51.4572 67.5922 51.5022 67.5922C51.5471 67.5922 51.5321 67.5922 51.5321 67.6272C51.5321 67.6621 51.5321 67.6272 51.4322 67.6721C51.3323 67.7171 51.3823 67.6721 51.3823 67.7371C51.4161 67.8977 51.4595 68.0561 51.5122 68.2116H51.5371Z" fill="white"/>
<path d="M54.6592 69.006C54.6592 69.0809 54.6592 69.1309 54.7391 69.1459C54.819 69.1608 54.844 69.1458 54.844 69.1958C54.844 69.2458 54.844 69.1958 54.7891 69.1958C54.7177 69.1881 54.6457 69.1881 54.5743 69.1958C54.5062 69.1876 54.4375 69.1876 54.3695 69.1958C54.3295 69.1958 54.3145 69.1958 54.3145 69.1658C54.3145 69.1359 54.3595 69.1359 54.4094 69.1259C54.4594 69.1159 54.4943 69.0909 54.4943 69.001V67.7372C54.4943 67.6672 54.4943 67.6522 54.4244 67.6522C54.3545 67.6522 54.3145 67.6522 54.3145 67.6073C54.3145 67.5623 54.3145 67.5723 54.3695 67.5723H54.7941C54.829 67.5723 54.849 67.5723 54.849 67.6123C54.849 67.6522 54.819 67.6373 54.7291 67.6522C54.6392 67.6672 54.6592 67.6872 54.6592 67.7372V69.006Z" fill="white"/>
<path d="M57.3867 68.9659C57.3867 69.1008 57.4317 69.1557 57.5565 69.1557C57.6381 69.1578 57.7177 69.1301 57.7803 69.0776C57.8428 69.0252 57.8841 68.9517 57.8962 68.871C57.8962 68.796 57.8962 68.7661 57.9462 68.7661C57.9961 68.7661 57.9462 68.7661 57.9462 68.9459C57.9462 69.2007 57.9462 69.2157 57.9062 69.2157C57.8662 69.2157 57.7813 69.2157 57.3817 69.2157C57.1719 69.2157 57.1169 69.2157 57.067 69.2157C57.017 69.2157 57.017 69.2157 57.017 69.1857C57.017 69.1557 57.017 69.1507 57.102 69.1457C57.1869 69.1407 57.1969 69.1008 57.1969 69.0208V67.8319C57.1969 67.6871 57.1969 67.6621 57.1269 67.6621C57.057 67.6621 57.017 67.6621 57.017 67.6171C57.017 67.5722 57.017 67.5822 57.067 67.5822C57.1169 67.5822 57.1769 67.5822 57.3118 67.5822C57.4466 67.5822 57.4816 67.5822 57.5166 67.5822C57.5258 67.5822 57.5347 67.5859 57.5413 67.5924C57.5479 67.599 57.5515 67.6079 57.5515 67.6171C57.5515 67.6521 57.5166 67.6171 57.4416 67.6621C57.3667 67.7071 57.3667 67.6621 57.3667 67.767V68.9559L57.3867 68.9659Z" fill="white"/>
<path d="M60.4439 68.9659C60.4439 69.1008 60.4988 69.1557 60.6237 69.1557C60.705 69.1568 60.784 69.1286 60.8464 69.0764C60.9087 69.0241 60.9502 68.9512 60.9634 68.871C60.9634 68.796 60.9634 68.7661 61.0083 68.7661C61.0533 68.7661 61.0083 68.7661 61.0083 68.9459C61.0083 69.2007 61.0083 69.2157 60.9684 69.2157C60.9284 69.2157 60.8435 69.2157 60.4688 69.2157C60.259 69.2157 60.2091 69.2157 60.1541 69.2157C60.0992 69.2157 60.0992 69.2157 60.0992 69.1857C60.0992 69.1557 60.1242 69.1507 60.1891 69.1457C60.254 69.1407 60.279 69.1008 60.279 69.0208V67.8319C60.279 67.6871 60.279 67.6621 60.2141 67.6621C60.1491 67.6621 60.0992 67.6621 60.0992 67.6171C60.0992 67.5722 60.0992 67.5822 60.1541 67.5822C60.2091 67.5822 60.259 67.5822 60.3989 67.5822C60.5388 67.5822 60.5637 67.5822 60.5987 67.5822C60.6337 67.5822 60.6437 67.5822 60.6437 67.6171C60.6437 67.6521 60.5987 67.6171 60.5238 67.6621C60.4489 67.7071 60.4489 67.6621 60.4489 67.767V68.9559L60.4439 68.9659Z" fill="white"/>
<path d="M63.3362 67.7571C63.3362 67.6972 63.3362 67.6722 63.2862 67.6722C63.2363 67.6722 63.1913 67.6722 63.1913 67.6272C63.1913 67.5823 63.1913 67.5923 63.2563 67.5923C63.3212 67.5923 63.4311 67.5923 63.6459 67.5923C63.8607 67.5923 64.0255 67.5923 64.0705 67.5923C64.1155 67.5923 64.1304 67.5923 64.1304 67.7072C64.1304 67.9869 64.1304 68.0119 64.0955 68.0119C64.0605 68.0119 64.0955 68.0119 64.0655 67.9419C64.0463 67.8546 63.9952 67.7775 63.9222 67.7258C63.8493 67.6741 63.7597 67.6514 63.6709 67.6622C63.526 67.6622 63.506 67.6622 63.506 67.7171V68.2716C63.506 68.3166 63.506 68.3166 63.6159 68.3166C63.7258 68.3166 63.8357 68.3166 63.8657 68.2117C63.8957 68.1068 63.8957 68.1018 63.9206 68.1018C63.9456 68.1018 63.9206 68.1018 63.9206 68.1517C63.9206 68.2017 63.9206 68.2566 63.9206 68.3566C63.9206 68.4565 63.9206 68.5364 63.9206 68.6063C63.9206 68.6763 63.9206 68.6463 63.8907 68.6463C63.8607 68.6463 63.8657 68.6463 63.8507 68.5614C63.8157 68.4215 63.7758 68.3815 63.6409 68.3815C63.506 68.3815 63.491 68.3815 63.491 68.4215V68.976C63.491 69.1009 63.561 69.1558 63.7208 69.1558C63.9656 69.1558 64.0255 69.0609 64.0805 68.8411C64.0805 68.7662 64.1155 68.7562 64.1404 68.7562C64.1654 68.7562 64.1404 68.7562 64.1404 69.006C64.1404 69.2557 64.1404 69.2158 64.0655 69.2158H63.566C63.4311 69.2158 63.3462 69.2158 63.2463 69.2158C63.1464 69.2158 63.1663 69.2158 63.1663 69.1808C63.1663 69.1458 63.1663 69.1508 63.2313 69.1458C63.2962 69.1408 63.3262 69.1009 63.3262 69.006V67.7571H63.3362Z" fill="white"/>
<path d="M69.2707 68.9759C69.2707 69.0808 69.3056 69.1557 69.4405 69.1557C69.7302 69.1557 69.8951 68.9659 69.8951 68.3964C69.8951 67.8269 69.6803 67.6271 69.4205 67.6271C69.2956 67.6271 69.2707 67.6721 69.2707 67.767V68.9759ZM69.1058 67.772C69.1058 67.6971 69.0659 67.6871 68.9709 67.6721C68.876 67.6571 68.921 67.6721 68.921 67.6721C68.921 67.6721 68.921 67.6721 69.0109 67.6271C69.1355 67.5894 69.2655 67.5725 69.3956 67.5772C69.4953 67.5799 69.5934 67.6034 69.6835 67.6463C69.7736 67.6893 69.8537 67.7506 69.9187 67.8264C69.9836 67.9021 70.032 67.9907 70.0606 68.0863C70.0892 68.1819 70.0975 68.2824 70.0849 68.3814C70.0849 68.881 69.8701 69.2256 69.4305 69.2256H68.9709C68.931 69.2256 68.921 69.2256 68.921 69.1957C68.921 69.1657 68.921 69.1657 69.0059 69.1557C69.0908 69.1457 69.1058 69.1108 69.1058 69.0158V67.772Z" fill="white"/>
<path d="M72.4477 67.7571C72.4477 67.6972 72.4477 67.6722 72.3977 67.6722C72.3478 67.6722 72.3078 67.6722 72.3078 67.6272C72.3078 67.5823 72.3078 67.5923 72.3678 67.5923C72.4277 67.5923 72.5426 67.5923 72.7524 67.5923C72.9622 67.5923 73.1321 67.5923 73.182 67.5923C73.232 67.5923 73.242 67.5923 73.242 67.7072C73.242 67.9869 73.242 68.0119 73.212 68.0119C73.182 68.0119 73.212 68.0119 73.167 67.9419C73.1535 67.8546 73.106 67.7762 73.0348 67.7238C72.9637 67.6714 72.8748 67.6493 72.7874 67.6622C72.6375 67.6622 72.6175 67.6622 72.6175 67.7171V68.2716C72.6175 68.3166 72.6175 68.3166 72.7274 68.3166C72.8373 68.3166 72.9472 68.3166 72.9822 68.2117C73.0172 68.1068 72.9822 68.1018 73.0272 68.1018C73.0721 68.1018 73.0272 68.1018 73.0272 68.1517C73.0272 68.2017 73.0272 68.2566 73.0272 68.3566C73.0272 68.4565 73.0272 68.5364 73.0272 68.6063C73.0272 68.6763 73.0272 68.6463 73.0272 68.6463C73.0272 68.6463 72.9972 68.6463 72.9822 68.5614C72.9372 68.4215 72.9023 68.3815 72.7624 68.3815C72.6225 68.3815 72.6175 68.3815 72.6175 68.4215V68.976C72.6175 69.1009 72.6875 69.1558 72.8423 69.1558C73.0921 69.1558 73.152 69.0609 73.212 68.8411C73.212 68.7662 73.242 68.7562 73.2619 68.7562C73.2819 68.7562 73.2619 68.7562 73.2619 69.006C73.2619 69.2557 73.2619 69.2158 73.187 69.2158H72.6875C72.5576 69.2158 72.4627 69.2158 72.3678 69.2158C72.2729 69.2158 72.2928 69.2158 72.2928 69.1808C72.2928 69.1458 72.2928 69.1508 72.3528 69.1458C72.4127 69.1408 72.4477 69.1009 72.4477 69.006V67.7571Z" fill="white"/>
<path d="M42.3407 78.6819C42.3407 79.1065 42.3407 79.7209 42.5455 79.9657C42.7351 80.1185 42.9775 80.1904 43.2198 80.1655C43.4081 80.1773 43.5956 80.1328 43.7584 80.0376C43.9212 79.9424 44.052 79.8008 44.134 79.631C44.372 79.1678 44.4921 78.653 44.4837 78.1324C44.5394 77.483 44.3466 76.8367 43.9442 76.324C43.8002 76.1762 43.6234 76.0643 43.4281 75.9974C43.2329 75.9306 43.0246 75.9107 42.8202 75.9394C42.4056 75.9394 42.3207 75.8195 42.3207 76.5488V78.6619L42.3407 78.6819ZM42.3407 75.0602C42.3407 75.6697 42.3756 75.6946 42.6853 75.6946H43.07C43.247 75.7085 43.424 75.6681 43.5775 75.5788C43.731 75.4896 43.8536 75.3558 43.9292 75.1951C44.112 74.8191 44.1995 74.404 44.1839 73.9862C44.1839 72.6674 43.6045 72.1929 42.9901 72.1929C42.8402 72.1929 42.5255 72.1929 42.4106 72.4277C42.3429 72.6713 42.3193 72.925 42.3407 73.177V75.0602ZM41.7812 73.5616C41.7812 73.0371 41.8311 72.4526 41.4615 72.4526C41.3316 72.4526 41.2117 72.5575 41.1268 72.5575C41.0419 72.5575 41.0469 72.5176 41.0469 72.4377C41.0469 72.2179 41.2966 72.1529 41.3766 72.1229C41.833 72.0047 42.3038 71.9509 42.7753 71.9631C43.2638 71.9107 43.7556 72.0271 44.169 72.2928C44.3926 72.5017 44.5676 72.7572 44.6815 73.0412C44.7954 73.3252 44.8456 73.6307 44.8283 73.9363C44.8283 74.9903 44.3288 75.5648 43.8543 75.7496C44.4837 75.8944 45.1131 76.7487 45.1131 78.0824C45.1327 78.7399 44.94 79.3862 44.5636 79.9257C44.435 80.1024 44.2618 80.2417 44.0617 80.3295C43.8615 80.4172 43.6417 80.4503 43.4246 80.4252C42.8452 80.4252 42.2807 80.3703 41.7062 80.3703C41.5664 80.3703 41.4115 80.4252 41.2617 80.4252C41.1967 80.4252 41.1418 80.3703 41.1418 80.2254C41.1418 80.0806 41.2517 80.0955 41.3216 80.0955C41.8211 80.0955 41.7812 79.8008 41.7812 78.9566V73.5616Z" fill="white"/>
<path d="M52.4713 78.6069C52.4713 79.606 52.4713 80.1056 53.1207 80.1056C53.2739 80.1006 53.4237 80.0591 53.5576 79.9843C53.6914 79.9096 53.8054 79.8038 53.8899 79.6759C54.0674 79.3319 54.192 78.9631 54.2596 78.582C54.2596 78.517 54.2996 78.4071 54.3445 78.4071C54.3895 78.4071 54.4095 78.497 54.4095 78.5919C54.4095 79.0415 54.3345 79.5011 54.3295 79.9657C54.3295 80.3054 54.3295 80.4652 54.1497 80.4652C53.4653 80.4652 52.776 80.4103 52.1016 80.4103C51.8618 80.4103 51.637 80.4652 51.3973 80.4652C51.3273 80.4652 51.2724 80.4103 51.2724 80.2754C51.2724 80.1405 51.3823 80.1006 51.4572 80.1006C51.9567 80.1006 51.9118 79.8508 51.9118 79.0216V73.6116C51.9118 72.7874 51.9468 72.5326 51.4572 72.5326C51.3823 72.5326 51.2724 72.5326 51.2724 72.3577C51.2724 72.1829 51.3223 72.1729 51.3973 72.1729C51.667 72.1729 51.8968 72.2279 52.1865 72.2279C52.4763 72.2279 52.721 72.1729 52.9858 72.1729C53.0457 72.1729 53.1107 72.2179 53.1107 72.3577C53.1107 72.4976 52.9858 72.5326 52.9258 72.5326C52.4263 72.5326 52.4713 72.7874 52.4713 73.6116V78.6069Z" fill="white"/>
<path d="M64.2753 73.5267C63.9406 72.7724 63.4761 72.3228 62.9466 72.3228C62.417 72.3228 61.8875 72.7574 61.5529 73.5616C60.9368 75.3226 60.9368 77.2406 61.5529 79.0016C61.8925 79.7659 62.3821 80.1755 62.9216 80.1755C63.4611 80.1755 63.9207 79.6759 64.2753 78.9166C64.6029 78.0651 64.7542 77.1559 64.7199 76.2441C64.7577 75.3153 64.5977 74.389 64.2503 73.5267H64.2753ZM62.9266 71.9631C64.2753 71.9631 65.3843 73.7015 65.3843 76.2441C65.3843 78.7868 64.2753 80.5501 62.9266 80.5501C61.6677 80.5501 60.4739 78.6419 60.4739 76.2441C60.4739 73.8464 61.6677 71.9631 62.9266 71.9631Z" fill="white"/>
<path d="M72.2329 73.6116C72.2329 72.7874 72.2629 72.5326 71.7733 72.5326C71.7084 72.5326 71.5935 72.5326 71.5935 72.3577C71.5935 72.1829 71.6484 72.1729 71.7184 72.1729C71.9881 72.1729 72.2179 72.2279 72.5076 72.2279C72.7974 72.2279 73.0421 72.1729 73.3069 72.1729C73.3718 72.1729 73.4318 72.2179 73.4318 72.3577C73.4318 72.4976 73.3069 72.5326 73.242 72.5326C72.7424 72.5326 72.7874 72.7874 72.7874 73.6116V79.0166C72.7874 79.8608 72.7574 80.0956 73.242 80.1155C73.3069 80.1155 73.4318 80.1155 73.4318 80.2704C73.4318 80.4252 73.3718 80.4452 73.3069 80.4452C73.0421 80.4452 72.8074 80.3903 72.5126 80.3903C72.2179 80.3903 71.9881 80.4452 71.7184 80.4452C71.6534 80.4452 71.5935 80.4153 71.5935 80.2704C71.5935 80.1255 71.7084 80.1155 71.7733 80.1155C72.2729 80.1155 72.2329 79.8458 72.2329 79.0166V73.6116Z" fill="white"/>
<path d="M80.76 76.3241C80.4283 76.0817 80.1629 75.7597 79.9883 75.3878C79.8137 75.0159 79.7355 74.6061 79.7609 74.196C79.7609 72.8123 80.4353 71.9631 81.1247 71.9631C81.4603 71.9694 81.7874 72.0698 82.0688 72.2528C82.2086 72.3528 82.1837 72.4976 82.1987 72.7524C82.1987 73.0971 82.1987 73.4367 82.1987 73.7814C82.1987 73.8713 82.1987 73.9413 82.1287 73.9413C82.0588 73.9413 82.0338 73.7315 82.0088 73.6366C81.854 72.7274 81.6392 72.2379 81.0947 72.2379C80.6251 72.2379 80.1805 72.6874 80.1805 73.6465C80.1805 74.7855 80.9548 75.2401 81.4144 75.6097C81.7024 75.8327 81.9406 76.1135 82.1137 76.434C82.3438 76.9229 82.4616 77.4571 82.4584 77.9975C82.4696 78.6563 82.2966 79.3051 81.9589 79.8708C81.8461 80.0743 81.6822 80.245 81.4833 80.3658C81.2845 80.4867 81.0576 80.5537 80.8249 80.5601C80.6212 80.5497 80.4218 80.4978 80.2388 80.4076C80.0559 80.3174 79.8932 80.1908 79.7609 80.0356C79.636 79.9007 79.661 79.5361 79.661 79.3063C79.661 78.9566 79.661 78.6269 79.661 78.3072C79.661 78.1973 79.696 78.0425 79.7709 78.0425C79.8459 78.0425 79.8608 78.3672 79.8708 78.4771C79.9408 79.611 80.2655 80.3154 80.9049 80.3154C81.4344 80.3154 81.9589 79.651 81.9589 78.6019C81.9881 78.2295 81.9244 77.8557 81.7736 77.5139C81.6227 77.1722 81.3895 76.8732 81.0947 76.6438L80.76 76.3241Z" fill="white"/>
<path d="M73.6566 50.5681C73.8514 50.4932 74.0712 50.4183 74.0312 50.1435C73.9912 49.8688 73.7015 49.9787 73.5317 49.8938C73.7465 50.1036 73.6066 50.3434 73.6466 50.5681H73.6566ZM74.1811 49.7789C74.3409 49.7789 74.3159 49.644 74.3259 49.5141C74.3056 49.4864 74.2761 49.4668 74.2426 49.4589C74.2092 49.4509 74.174 49.4551 74.1433 49.4708C74.1127 49.4864 74.0886 49.5124 74.0754 49.5441C74.0622 49.5758 74.0607 49.6113 74.0712 49.644C74.0712 49.7089 74.0712 49.8288 74.1811 49.7789ZM74.6007 48.9297C74.4059 49.1545 74.7406 49.1545 74.8904 49.1445C74.8904 49.0046 74.7555 48.4501 74.6007 48.9297ZM75.1002 48.4301C75.1752 48.4301 75.1002 48.2453 74.9953 48.1804C74.9354 48.2253 74.7855 48.3752 74.8455 48.4701C74.9354 48.4701 75.0353 48.4701 75.1002 48.4301ZM49.9036 47.7308C50.0085 47.511 49.6339 47.6459 49.5639 47.7607C49.0644 48.3402 49.7538 47.6908 49.9036 47.7308ZM75.6247 47.8357C75.6878 47.8396 75.7509 47.8293 75.8096 47.8057C75.9095 47.7158 75.8845 47.5909 75.8845 47.471C75.7846 47.511 75.6497 47.471 75.5948 47.6159C75.5398 47.7607 75.5648 47.7857 75.6247 47.8357ZM75.1252 46.9815C75.1752 46.9815 75.345 47.0464 75.285 46.9015C75.2251 46.7567 75.0802 46.9015 75.1252 46.9815ZM73.7215 47.0864C73.7215 46.9715 73.7215 46.7966 73.5616 46.8716C73.5866 46.9715 73.5017 47.4311 73.7215 47.0864ZM79.3313 42.2309C79.3812 42.151 79.4162 42.056 79.2963 42.0461C79.1764 42.0361 79.2014 42.2708 79.3313 42.2309ZM57.2068 41.5565C57.4816 41.2318 56.9471 41.4067 56.9471 41.5865C56.9471 41.7663 57.1469 41.6264 57.2068 41.5565ZM57.6614 41.2968C57.6713 41.1903 57.6468 41.0835 57.5915 40.992C57.4916 40.9671 57.3167 40.6524 57.2768 40.9221C57.5166 41.007 57.4266 41.3567 57.6614 41.2968ZM58.4407 40.8871C58.4407 40.8472 58.5256 40.8322 58.5106 40.7772C58.4956 40.7223 58.4757 40.7223 58.4407 40.7373C58.3258 40.7373 58.3258 40.9571 58.4407 40.8871ZM57.6964 40.4825C57.6614 40.3976 57.5965 40.4825 57.5515 40.4825C57.3967 40.6723 57.7114 40.6274 57.6964 40.4825ZM57.9911 40.5175C58.091 40.4675 58.061 40.3676 58.061 40.2977C58.061 40.2277 58.061 40.0979 57.9212 40.1378C57.9212 40.2627 57.8013 40.4475 57.9911 40.5175ZM61.6327 40.0179C61.6777 40.0179 61.7226 40.0179 61.7476 39.983C61.8325 39.7632 61.5478 39.8831 61.6327 40.0179ZM62.2372 39.4185C62.0873 39.5134 62.1572 39.6533 62.3071 39.6533C62.3521 39.5983 62.387 39.3835 62.2372 39.4185ZM59.5846 39.2736C59.6446 39.2736 59.6646 39.2287 59.6945 39.2037C59.7245 39.1787 59.7695 38.9489 59.6246 38.9839C59.5647 39.0538 59.4298 39.2037 59.5846 39.2736ZM79.2614 38.5143C79.1315 38.6342 79.2214 38.6942 79.3713 38.6592C79.3713 38.5543 79.3363 38.5543 79.2614 38.5143ZM80.4103 38.3745C80.0256 38.7591 79.5061 38.9539 79.2214 39.4035C79.6657 39.287 80.0742 39.0622 80.4103 38.7491C80.4362 38.7253 80.4568 38.6963 80.471 38.6641C80.4851 38.6318 80.4924 38.597 80.4924 38.5618C80.4924 38.5266 80.4851 38.4918 80.471 38.4595C80.4568 38.4273 80.4362 38.3983 80.4103 38.3745ZM80.7899 38.1097C80.7899 38.1597 80.7899 38.3095 80.8549 38.2196C80.9198 38.1297 80.9198 38.0997 80.7899 38.1097ZM81.1796 37.805C81.2042 37.8242 81.2333 37.837 81.2641 37.8423C81.2949 37.8476 81.3265 37.8452 81.3562 37.8353C81.3858 37.8254 81.4126 37.8083 81.4341 37.7856C81.4555 37.7629 81.4711 37.7353 81.4793 37.7051C81.4523 37.6623 81.4132 37.6285 81.3669 37.6081C81.3207 37.5876 81.2693 37.5814 81.2195 37.5902C81.1596 37.5902 81.0247 37.76 81.1796 37.805ZM81.854 37.2205C81.819 37.3304 81.9089 37.4553 82.0038 37.3704C82.2136 37.2555 81.9589 37.1007 81.854 37.2205ZM79.8558 37.4104C80.1755 37.4104 80.3054 36.9958 80.3853 36.736C80.3154 36.696 80.2804 36.5861 80.1955 36.6261C80.2255 37.0607 79.5261 36.8009 79.6959 37.3304C79.7161 37.3585 79.7434 37.3807 79.775 37.3948C79.8066 37.4088 79.8414 37.4142 79.8758 37.4104H79.8558ZM65.2743 36.9957C65.2743 36.736 65.8938 36.4962 65.4492 36.2864C65.4492 36.6161 64.9496 36.4812 64.9996 36.7859C65.0496 36.8809 65.1445 37.0057 65.2743 37.0057V36.9957ZM64.3302 36.696C64.4501 36.761 64.7548 36.761 64.7049 36.5512C64.525 36.4113 64.3302 36.0516 64.0755 36.2864C64.0105 36.5112 64.1604 36.6311 64.3302 36.696ZM66.673 35.5721C66.6231 35.697 66.758 35.8518 66.8329 35.697C66.7829 35.662 66.7829 35.5371 66.673 35.5721ZM66.2335 35.662C66.2934 35.612 66.2734 35.4672 66.1585 35.5021C66.1835 35.5521 66.0886 35.7219 66.2335 35.662ZM65.8238 35.662C65.9937 35.5721 65.7939 35.5371 65.7439 35.5021C65.649 35.5721 65.4392 35.5371 65.4492 35.7369C65.609 35.697 65.7039 35.7969 65.8238 35.662ZM65.2743 35.612C65.3792 35.4772 65.4692 35.1874 65.1844 35.4222C65.1445 35.4772 65.1045 35.697 65.2743 35.612ZM81.1646 35.2424C81.1246 35.1475 81.0347 35.1724 80.9548 35.1724C80.8749 35.1724 80.9148 35.4222 81.0597 35.3623C81.0759 35.3685 81.0936 35.3695 81.1105 35.3653C81.1273 35.3612 81.1425 35.3519 81.1539 35.3389C81.1653 35.3258 81.1725 35.3095 81.1744 35.2923C81.1763 35.275 81.1729 35.2576 81.1646 35.2424ZM66.3034 35.3173C66.4087 35.3007 66.5097 35.2635 66.6005 35.2078C66.6914 35.1521 66.7704 35.0789 66.8329 34.9926C66.6381 34.8378 66.4283 35.3073 66.1585 35.1375C66.0386 35.2773 66.2085 35.2724 66.3034 35.3173ZM67.802 34.573C67.6621 34.7478 67.4623 34.573 67.3025 34.573C67.1426 34.573 67.2225 34.7628 67.3025 34.8378C67.4723 34.623 67.9469 34.9676 67.802 34.573ZM72.4127 34.9177C72.6475 34.9177 72.113 34.1034 72.143 34.7628C72.1729 34.9177 72.3328 34.8677 72.4127 34.9177ZM68.1717 34.1334C68.2166 34.1034 68.3515 34.0485 68.2416 33.9786C68.2066 34.0135 67.9868 34.0835 68.1717 34.1334ZM77.7627 33.7887C77.8627 33.8836 77.9875 33.7887 78.0625 33.7238V33.6039C77.9975 33.6938 77.7827 33.6938 77.7627 33.7887ZM77.8027 33.2293C77.8726 33.3541 77.9726 33.504 78.0625 33.459C78.1424 33.3342 77.7627 32.5898 77.8027 33.2293ZM79.0166 32.6798C79.0166 32.7597 78.9117 32.9795 79.0965 32.9395C79.2813 32.8996 79.1664 32.5749 79.0166 32.6798ZM80.3553 32.3051C80.2404 32.3551 80.2954 32.4799 80.2904 32.5749C80.4203 32.6798 80.3304 32.395 80.3553 32.3051ZM70.1098 32.0553C70.0349 32.1353 69.7602 32.1902 69.92 32.3051C70.0199 32.2402 70.0349 32.1353 70.1098 32.0553ZM71.8782 33.0544C72.0031 32.8046 72.3328 32.9745 72.4827 32.8746C72.108 32.6048 72.7274 32.2851 72.9222 32.1652C73.0671 31.6207 72.7274 31.9954 72.5576 32.1652C72.3028 32.2701 72.0181 32.42 71.7433 32.2701C71.5136 32.5599 71.1389 32.6548 71.2888 33.1293C71.3437 32.9745 71.7134 33.0144 71.8782 33.0544ZM73.4817 31.6457C73.5317 31.5958 73.5616 31.4259 73.4468 31.4259C73.3319 31.4259 73.192 31.5708 73.3019 31.7107C73.3818 31.7456 73.4168 31.6807 73.4817 31.6457ZM80.2105 32.0154C80.5651 31.9554 80.4003 31.4159 80.8799 31.386C80.9448 31.386 81.2995 31.2111 81.0297 31.2011C80.8099 31.2861 80.3703 31.296 80.4702 31.7007C80.3304 32.1203 79.9707 31.6707 79.8058 31.9305C79.8093 31.9913 79.8193 32.0516 79.8358 32.1103C79.8631 32.1358 79.8961 32.1545 79.932 32.1648C79.9679 32.175 80.0058 32.1765 80.0424 32.1692C80.0791 32.1619 80.1134 32.1459 80.1427 32.1226C80.1719 32.0994 80.1951 32.0694 80.2105 32.0354V32.0154ZM76.0094 30.1871C75.9744 30.0972 75.8495 30.1871 75.8995 30.272C75.9594 30.272 76.0393 30.297 76.0094 30.1871ZM80.5801 30.1871C80.1905 29.8024 80.0806 30.4269 79.9957 30.6866C80.221 30.5595 80.4195 30.3899 80.5801 30.1871ZM81.6591 29.8674C81.5842 29.7575 81.3744 29.7974 81.5093 29.9423C81.5842 29.9723 81.6292 29.8973 81.6591 29.8674ZM74.5208 30.5368C74.7475 30.4508 74.9794 30.3791 75.2151 30.3219C75.375 30.3519 75.365 30.5168 75.4149 30.6167C75.4149 30.6167 75.5098 30.6167 75.4799 30.5717C75.4421 30.5383 75.4134 30.4958 75.3964 30.4483C75.3794 30.4008 75.3747 30.3498 75.3826 30.3C75.3906 30.2502 75.411 30.2032 75.442 30.1634C75.473 30.1235 75.5135 30.0922 75.5598 30.0722C75.6949 29.9139 75.7937 29.7281 75.8495 29.5277C75.6397 29.4028 75.5348 29.7325 75.305 29.6726C74.7393 30.1234 74.2005 30.6071 73.6915 31.1212C73.5666 31.2861 73.7814 31.5009 73.8164 31.5758C73.8164 31.1162 74.4258 30.8964 74.5208 30.5218V30.5368ZM78.3122 29.0531C78.3122 28.9882 78.3522 28.9083 78.2323 28.9432C78.2323 28.9882 78.2073 29.0931 78.3122 29.0531ZM76.3141 29.9823C75.8395 29.2729 77.3531 29.2629 76.5788 28.8383C76.4789 28.8764 76.3878 28.9346 76.3113 29.0094C76.2348 29.0841 76.1746 29.1739 76.1343 29.2729C76.5788 29.6476 75.5348 29.9173 76.3141 29.9823ZM77.503 29.0132C77.0034 28.6735 77.7577 28.3937 77.7278 28.2039C77.478 28.3688 77.0934 28.5186 77.0234 28.8383C77.0784 29.0631 77.3282 28.9882 77.523 29.0132H77.503ZM80.2954 64.6301C80.0756 64.6301 79.8408 64.8199 79.5461 64.74C79.5461 64.5551 79.7709 64.5052 79.9157 64.4902C80.1452 64.3176 80.327 64.0896 80.4441 63.8274C80.5612 63.5653 80.6097 63.2777 80.5851 62.9916C80.5002 62.8168 80.7849 62.612 80.9648 62.8168C81.1696 62.9217 81.5093 62.9816 81.5592 63.2863C81.5093 63.9557 80.7999 64.4203 80.2954 64.6301ZM72.5975 50.1435C71.9881 50.3483 72.0081 51.2325 71.2938 51.3674C71.0939 51.4923 71.0939 51.772 70.8492 51.807C70.7443 51.807 70.7043 51.6371 70.5894 51.6621C70.5095 51.807 70.5295 52.0368 70.2897 52.0817C70.3363 52.1745 70.3473 52.2811 70.3206 52.3815C70.2939 52.4818 70.2314 52.5689 70.1448 52.6262C70.1448 52.4814 69.8651 52.1866 69.7352 52.4064C69.7352 52.4064 69.4505 52.4314 69.5853 52.2965C69.7452 51.9419 70.0849 52.3665 70.2597 52.0368C70.218 51.8551 70.2046 51.6681 70.2197 51.4823C70.9041 51.832 71.3487 50.9228 71.8532 50.5931C72.123 50.2834 72.3528 49.9537 72.7424 49.8888L72.5975 50.1435ZM69.7002 53.1108C69.2007 53.0658 69.2706 53.7951 68.7711 53.6753C68.3015 53.93 68.4364 54.5644 67.9868 54.7493C67.9269 54.4196 68.2915 54.1648 68.3265 53.8201C68.6662 53.5404 69.1058 53.3206 69.4754 53.0009C69.5754 53.1008 69.8401 52.886 69.7002 53.1108ZM68.1317 52.6112C68.1607 52.6091 68.1898 52.615 68.2157 52.6281C68.2416 52.6413 68.2635 52.6613 68.2789 52.6859C68.2943 52.7106 68.3027 52.739 68.3032 52.7681C68.3037 52.7972 68.2962 52.8259 68.2816 52.851C68.2816 52.911 68.2066 52.851 68.1717 52.881C68.1717 52.7911 67.9718 52.7012 68.1317 52.6112ZM68.3665 36.8159C68.3511 36.8315 68.3329 36.8438 68.3127 36.8523C68.2926 36.8607 68.2709 36.865 68.2491 36.865C68.2272 36.865 68.2056 36.8607 68.1855 36.8523C68.1653 36.8438 68.147 36.8315 68.1317 36.8159C68.0917 36.681 68.5713 36.5512 68.3665 36.8159ZM68.866 51.3524C68.866 51.4273 68.9609 51.4773 69.0159 51.5372C69.0201 51.5815 69.0067 51.6257 68.9787 51.6603C68.9507 51.6948 68.9102 51.717 68.866 51.7221C68.7761 51.757 68.6912 51.6371 68.6762 51.5722C68.6612 51.5073 68.6762 51.2825 68.866 51.3524ZM69.0159 35.8918C69.1707 35.8318 69.2057 35.9767 69.2407 36.0766C69.2756 36.1765 69.0458 36.2165 68.9759 36.1465C68.906 36.0766 68.881 35.9367 69.0159 35.8918ZM69.91 49.7889C70.2947 49.4792 70.6693 50.4283 70.9091 49.8238C70.9341 49.6989 70.8292 49.5241 70.9441 49.4492C71.2238 49.4492 71.2638 49.684 71.2738 49.9038C71.282 49.93 71.2846 49.9577 71.2813 49.985C71.2781 50.0124 71.2691 50.0387 71.2549 50.0623C71.2408 50.0859 71.2218 50.1062 71.1992 50.122C71.1766 50.1377 71.151 50.1484 71.1239 50.1535C71.029 50.1935 70.8841 50.1036 70.8292 50.2384C71.004 50.8529 70.5345 49.9487 70.3846 50.4682C70.3147 50.3783 70.2947 50.2384 70.1648 50.1935C70.0349 50.1485 69.8201 50.4682 70.0499 50.5781C70.1398 50.6631 70.1748 50.668 70.0499 50.718C69.915 50.6181 69.6303 50.718 69.6403 50.4682C69.93 50.2684 70.2247 50.1435 69.905 49.7889H69.91ZM70.7992 39.3586C70.7992 39.2137 70.999 39.1737 71.0989 39.2537C71.1988 39.3336 70.8991 39.4285 70.7992 39.3586ZM69.8751 35.1275C70.2148 34.8278 70.7992 35.5621 70.9141 34.8278C71.009 34.6829 71.2888 34.8278 71.2788 34.563C71.079 34.563 70.9241 34.2183 70.7293 34.4531C70.6494 34.1534 70.9491 34.0285 71.1689 33.8587C71.3198 33.8364 71.4738 33.8501 71.6185 33.8986C71.4586 34.1234 71.6484 34.3982 71.6884 34.6779C71.7533 34.7378 71.8183 34.8328 71.9082 34.7928C72.1829 34.6479 71.8283 34.1234 72.2179 34.1634C72.2778 34.4431 72.6075 34.4431 72.7174 34.6629C72.6575 34.9077 72.8323 35.0476 72.8323 35.2524C72.3912 35.3352 71.9416 35.3638 71.4936 35.3373C71.4636 35.2024 71.7084 35.0975 71.6784 34.9277C70.999 34.6679 70.8242 35.4872 70.2647 35.5121C70.3297 35.1625 69.8051 35.3922 69.8651 35.1125L69.8751 35.1275ZM72.9672 36.1615C73.0222 36.1365 72.9672 36.2165 72.9972 36.2365C72.9725 36.2525 72.9448 36.2634 72.9158 36.2683C72.8868 36.2732 72.8571 36.2721 72.8286 36.2651C72.8 36.2581 72.7732 36.2453 72.7497 36.2274C72.7263 36.2096 72.7068 36.1872 72.6925 36.1615C72.7524 36.0017 72.8673 36.1615 72.9672 36.1615ZM73.1021 36.8359C73.5417 36.716 73.6016 37.1756 73.8913 37.2855C73.7265 37.3304 73.6066 37.4853 73.3918 37.4254C73.2569 37.2455 72.9822 37.2855 72.7924 37.3204C72.6025 37.3554 72.7424 37.5053 72.6825 37.6451C72.4127 37.6451 72.1829 37.9499 71.9382 37.795C72.0381 37.6352 72.3628 37.7001 72.3877 37.4254C71.9981 37.2755 72.2529 36.8908 72.2429 36.5761C72.2429 36.6361 72.3128 36.6711 72.3578 36.726C72.4027 36.781 72.4976 36.726 72.5376 36.686C72.5726 36.8509 72.2828 37.0507 72.5726 37.1856C72.7324 36.9008 73.187 37.2855 73.0721 36.8109L73.1021 36.8359ZM73.3269 33.8387C73.4867 33.5939 73.6316 33.7887 73.6166 33.9835C73.6016 34.1784 73.4218 34.0735 73.3618 34.0185C73.3019 33.9636 73.3618 33.9086 73.3269 33.8387ZM74.266 39.1488C74.3809 38.834 74.7955 38.6842 75.0153 38.4844C74.8255 38.8041 74.4808 39.0239 74.4209 39.4385C74.3424 39.471 74.2548 39.4742 74.1742 39.4476C74.0935 39.4211 74.025 39.3664 73.9813 39.2936C73.9163 38.9839 74.1661 39.2936 74.266 39.1488ZM74.6157 36.3214C74.6157 36.5861 74.256 36.4363 74.1161 36.5861C74.246 36.4113 74.4209 35.7769 74.6157 36.3214ZM74.7206 34.6879C74.8205 34.4631 75.33 34.0635 75.355 34.538C75.4649 34.9676 74.9953 34.563 74.9054 34.9526C74.6806 34.8677 74.4558 35.2723 74.3409 34.9177C74.296 34.6729 74.6157 34.6879 74.7206 34.6879ZM74.8654 33.3941C74.9154 33.514 74.7955 33.539 74.7206 33.5789C74.6456 33.489 74.7206 33.2292 74.8654 33.3941ZM75.1602 32.7597C75.2201 32.7597 75.2751 32.7597 75.2701 32.8296C75.2787 32.8644 75.276 32.901 75.2626 32.9342C75.2491 32.9674 75.2255 32.9955 75.1951 33.0145C75.2451 33.1243 75.4299 33.0844 75.39 33.2293C75.3546 33.2529 75.3141 33.2681 75.2719 33.2735C75.2296 33.2789 75.1867 33.2744 75.1465 33.2603C75.1063 33.2463 75.0699 33.2231 75.0402 33.1925C75.0105 33.162 74.9883 33.125 74.9753 33.0844C74.9054 32.9295 75.0852 32.8546 75.1602 32.7597ZM75.6597 40.1828C75.6955 40.1699 75.734 40.1663 75.7715 40.1724C75.8091 40.1784 75.8445 40.1939 75.8745 40.2173C75.9044 40.2408 75.9279 40.2715 75.9428 40.3065C75.9576 40.3415 75.9634 40.3797 75.9594 40.4176C75.8345 40.4775 75.4599 40.9171 75.4599 40.5275C75.444 40.458 75.4534 40.3852 75.4863 40.322C75.5193 40.2589 75.5737 40.2095 75.6397 40.1828H75.6597ZM75.6297 35.3173C75.6597 35.3173 75.7097 35.3173 75.7346 35.3623C75.7596 35.4072 75.7346 35.4172 75.6997 35.4222C75.5998 35.4672 75.5398 35.3823 75.6297 35.3173ZM76.5189 37.2205C76.6538 37.2205 76.8486 37.2955 76.8086 37.4753C76.8086 37.5253 76.8536 37.5502 76.8935 37.5902C77.0534 37.1506 77.1733 37.795 77.3931 37.805C77.2982 37.8849 77.2282 38.0398 77.1084 38.0398C77.1084 37.9599 77.1583 37.8599 77.0284 37.77C76.8985 37.6801 76.5289 38.0148 76.5289 37.6551C76.3091 37.82 76.1393 37.7251 75.8895 37.805C75.9694 37.4753 76.3541 37.4154 76.5289 37.2205H76.5189ZM77.0184 36.1366C77.2033 36.1366 77.2782 36.4862 77.518 36.4363C77.518 36.2065 77.8477 35.8818 77.483 35.7369C77.5779 35.4672 77.8577 35.637 77.9825 35.8019C77.8177 36.0916 78.0325 36.3813 77.6878 36.5861C77.5546 36.6157 77.4167 36.6177 77.2827 36.5919C77.1486 36.5661 77.0213 36.5132 76.9085 36.4363C76.8636 36.3114 76.9835 36.2464 77.0234 36.1366H77.0184ZM78.7268 36.0666C78.6519 36.3214 78.3022 36.4263 78.2673 36.736C78.1024 36.8059 77.7677 37.1956 77.9376 36.696C78.3872 36.5961 78.1824 35.9168 78.7268 36.0666ZM78.8318 34.6479C78.9516 34.6479 79.1864 34.6479 79.0865 34.8378C78.8867 34.9526 78.7668 34.613 78.612 34.8378C78.4971 34.9327 78.8168 35.2274 78.4971 35.1724C78.537 34.9676 78.4971 34.613 78.8318 34.6479ZM77.5629 38.1846C77.528 38.2196 77.493 38.2945 77.4131 38.2945C77.3431 38.1946 77.493 38.0997 77.528 38.0048C77.5979 38.0048 77.5629 38.1097 77.5629 38.1846ZM75.9694 38.6592C75.9694 38.4944 76.2691 38.4644 76.379 38.5843C76.2791 38.6292 76.0693 38.889 75.9694 38.6592ZM76.8186 40.3576C76.8736 40.4825 77.1383 40.5175 76.9385 40.6524C76.8536 40.6923 76.7287 40.7972 76.6638 40.6524C76.5895 40.6197 76.5243 40.5694 76.4738 40.5059C76.4233 40.4423 76.3891 40.3674 76.374 40.2877C76.4125 40.1411 76.426 39.9891 76.414 39.8381C76.2991 39.6133 75.9145 40.2527 76.0294 39.7632C76.374 39.1637 76.5639 40.1478 76.9385 39.6932C76.7887 39.908 76.5739 40.1129 76.8186 40.3576ZM77.488 41.6964C77.3281 41.082 78.1574 41.6964 78.1923 41.9212C78.2273 42.146 78.2423 42.151 78.0775 42.2509C77.8027 42.106 77.5779 42.3508 77.3381 42.4007C77.0884 42.6955 77.0084 43.3399 76.414 43.14C76.3141 43.18 76.2392 43.3049 76.1193 43.2449C75.9938 43.1792 75.8907 43.0776 75.8231 42.953C75.7554 42.8285 75.7264 42.6867 75.7396 42.5456C75.9344 42.3558 75.6197 42.116 75.7796 41.9611C75.9644 42.081 76.1942 42.116 76.1942 42.4007C76.2392 42.5456 76.0743 42.6555 76.1942 42.7754C76.364 42.7754 76.464 42.5856 76.5239 42.4707C76.8186 42.141 77.463 42.2758 77.488 41.6964ZM75.1452 41.5066C75.1588 41.3999 75.2065 41.3004 75.2812 41.223C75.3559 41.1456 75.4536 41.0944 75.5598 41.077C75.5998 41.077 75.6397 41.077 75.6697 41.1069C75.2151 41.017 75.5498 41.9811 75.1452 41.5066ZM74.4708 44.3739C74.241 44.4288 74.206 44.1541 74.0712 44.0292C74.1585 43.9669 74.2305 43.8855 74.2816 43.7911C74.3327 43.6967 74.3615 43.5919 74.3659 43.4847C74.3412 43.4411 74.303 43.4068 74.257 43.387C74.211 43.3671 74.1598 43.3629 74.1111 43.3748C74.0812 43.4997 73.9263 43.5696 73.8514 43.4148C73.8415 42.8805 73.9295 42.3488 74.1111 41.8462C74.3159 41.7913 74.4258 42.0361 74.5208 42.141C74.4812 42.1346 74.4409 42.1364 74.4021 42.1462C74.3633 42.156 74.3269 42.1736 74.2951 42.1979C74.2633 42.2222 74.2368 42.2527 74.2172 42.2876C74.1976 42.3224 74.1853 42.3609 74.1811 42.4007C74.1811 42.9003 74.4658 43.2699 74.5208 43.7395C74.7405 43.7844 75.0203 43.7695 75.1052 44.0292C74.9454 44.304 74.5108 43.9493 74.4708 44.3739ZM72.8024 42.2858C72.6525 42.2409 72.7724 42.116 72.8423 42.066C73.0721 42.116 73.0321 42.4207 73.142 42.5656C72.8273 42.7204 73.1021 42.2659 72.8024 42.2659V42.2858ZM72.3977 47.8657C72.3178 47.8657 72.2928 47.7508 72.3678 47.7208C72.4427 47.6908 72.3678 47.8257 72.3977 47.8657ZM71.7683 43.3698C71.7034 43.3698 71.6684 43.3199 71.6185 43.2749C71.5685 43.23 71.6185 43.0901 71.7333 43.135C71.7683 43.205 71.8183 43.3449 71.7683 43.3698ZM67.6471 37.8749C67.5472 37.7151 67.1476 37.78 67.1876 37.5053C67.1876 37.3754 67.2525 37.2755 67.2375 37.1356C67.2225 36.9958 67.0077 37.1356 66.9028 37.0207C66.8842 36.9555 66.8841 36.8863 66.9026 36.821C66.9212 36.7557 66.9576 36.6968 67.0077 36.6511C67.5372 36.5412 67.1426 37.2355 67.6471 37.2105C67.6172 37.4054 67.8619 37.7101 67.6471 37.8749ZM67.4473 55.2388C66.978 55.4757 66.5428 55.7747 66.1535 56.128C65.6012 56.343 65.0932 56.658 64.6549 57.0571C64.6202 57.0624 64.5847 57.0583 64.5522 57.0451C64.5197 57.0319 64.4913 57.0102 64.4701 56.9822C64.7748 56.7324 65.3942 56.5726 65.4292 56.058C65.9038 55.6384 66.6631 55.6984 67.1726 55.2788C67.2026 55.054 67.6022 54.8392 67.4323 55.2388H67.4473ZM64.4002 55.1639C64.535 55.1039 64.585 55.2438 64.6699 55.3137C64.6699 55.6035 64.3252 55.7533 64.1054 55.8732C63.9805 55.5885 64.2953 55.3737 64.4002 55.1639ZM63.9006 56.6625C63.8257 56.6625 63.7558 56.7974 63.6858 56.6974C63.5959 56.4327 64.1854 56.3528 63.9006 56.6625ZM63.451 42.8753C63.501 42.6555 63.486 42.2958 63.7558 42.126C63.9156 42.126 64.1554 42.086 64.1554 42.3058C63.7458 42.3558 63.9506 43.0601 63.451 42.8753ZM63.5609 41.4166C63.6259 41.4166 63.6359 41.4666 63.6858 41.4866C63.7208 41.6165 63.5759 41.5915 63.526 41.6364C63.5128 41.6201 63.5032 41.6012 63.4978 41.5809C63.4924 41.5607 63.4913 41.5395 63.4946 41.5188C63.4979 41.498 63.5055 41.4783 63.5169 41.4607C63.5283 41.4431 63.5433 41.4281 63.5609 41.4166ZM64.3452 39.3685C64.3802 39.4934 64.1404 39.4535 64.0854 39.4035C64.0155 39.2237 64.3052 39.2736 64.3452 39.3685ZM64.3802 54.7243C64.3802 54.6793 64.3802 54.4745 64.5001 54.4296C64.535 54.5195 64.4102 54.7393 64.3802 54.7243ZM64.3802 39.7832C64.4751 39.7832 64.6249 39.7832 64.61 39.8931C64.525 39.8931 64.3452 39.948 64.3802 39.7832ZM65.2244 38.3595C65.4292 38.3195 65.5691 38.4094 65.7739 38.3895C65.619 38.5843 65.9587 38.889 65.629 38.9889C65.0695 39.0938 65.3243 38.4894 64.9546 38.3195C65.0196 38.0947 65.1045 38.4044 65.2244 38.3595ZM66.2235 54.3047C66.3034 54.3446 66.4183 54.3446 66.4832 54.4495C66.4832 54.6344 66.3434 54.7293 66.1835 54.7792C65.7589 54.5494 65.639 55.2388 65.2194 55.1239C65.4042 54.6244 65.9837 54.7243 66.2185 54.3047H66.2235ZM66.0786 38.1697C66.2235 38.1297 66.2734 38.2296 66.2934 38.3595C66.2994 38.393 66.2961 38.4275 66.2838 38.4593C66.2714 38.491 66.2506 38.5187 66.2235 38.5393C66.1871 38.5279 66.1538 38.5085 66.1259 38.4825C66.0981 38.4565 66.0764 38.4246 66.0625 38.3892C66.0486 38.3537 66.0428 38.3156 66.0456 38.2776C66.0484 38.2396 66.0597 38.2027 66.0786 38.1697ZM66.8978 42.2259C66.87 42.2212 66.844 42.2088 66.8229 42.19C66.8017 42.1712 66.7864 42.1468 66.7785 42.1196C66.7707 42.0925 66.7707 42.0636 66.7786 42.0365C66.7864 42.0093 66.8018 41.9849 66.8229 41.9661C66.8521 41.9687 66.8798 41.98 66.9024 41.9986C66.925 42.0172 66.9414 42.0422 66.9495 42.0703C66.9576 42.0984 66.957 42.1283 66.9478 42.1561C66.9386 42.1839 66.9212 42.2082 66.8978 42.2259ZM66.773 40.4575C66.703 40.5025 66.6531 40.5974 66.5382 40.5674C66.5362 40.2357 66.6614 39.9157 66.8878 39.6733C66.8878 39.6733 66.8878 39.6733 66.9228 39.7132C66.5332 39.8831 67.2026 40.2128 66.773 40.4575ZM66.728 39.2237C66.7442 39.2356 66.7592 39.249 66.773 39.2636C66.8129 39.4035 66.6181 39.3036 66.5382 39.3336C66.3334 39.4035 66.5132 39.7931 66.2534 39.6733C66.1286 39.2686 66.5681 39.4035 66.728 39.2237ZM62.4919 42.5656C62.417 42.5656 62.3221 42.6005 62.2771 42.5306C62.2422 42.3708 62.5169 42.146 62.6068 42.3508C62.6368 42.4507 62.5569 42.5106 62.4919 42.5656ZM62.0823 43.6895C61.8076 43.5297 62.0423 42.9652 61.5828 42.9802C61.9524 42.4407 62.1423 43.23 62.397 43.4348C62.397 43.6246 62.1822 43.5996 62.0623 43.6895H62.0823ZM61.7326 45.353C61.6606 45.3415 61.5948 45.3053 61.5465 45.2506C61.4982 45.1959 61.4704 45.1262 61.4679 45.0533C61.4079 44.8584 61.6677 44.8235 61.7676 44.8934C61.8675 44.9633 61.9225 45.1432 62.0573 45.2381C62.0973 45.4029 61.8375 45.4029 61.7326 45.353ZM60.4638 57.9063C60.3489 57.3518 59.7894 57.9063 59.4647 57.8764C58.9652 58.6756 58.066 59.0503 57.6165 59.8745C57.1169 59.5498 56.987 60.3291 56.4875 60.0993C56.7972 59.9344 57.3417 59.7896 57.3417 59.315C57.9661 58.8604 58.7404 58.5357 59.17 57.8164C59.17 57.5766 59.17 57.217 59.4647 57.3718C59.4835 57.4184 59.5117 57.4605 59.5477 57.4954C59.5837 57.5304 59.6265 57.5574 59.6736 57.5748C59.7206 57.5922 59.7708 57.5996 59.8209 57.5965C59.8709 57.5934 59.9198 57.5798 59.9643 57.5566C60.0892 57.4468 60.269 57.3918 60.3239 57.217C60.3789 57.0421 60.1491 56.7174 60.4388 56.9222C60.4788 57.1021 60.5138 57.2969 60.7086 57.3718C60.9484 57.3319 61.2481 56.9872 61.4129 57.137C61.1192 57.4065 60.8071 57.6552 60.4788 57.8813L60.4638 57.9063ZM56.2827 43.1251C56.3676 43.1251 56.4525 43.1251 56.5025 43.2C56.5103 43.2357 56.5079 43.273 56.4955 43.3074C56.4832 43.3419 56.4613 43.3722 56.4326 43.3948C56.2627 43.4448 56.1978 43.23 56.2827 43.1251ZM56.3976 60.6738C56.3227 60.7337 56.1978 60.6738 56.0979 60.7137C56.0329 60.459 56.5225 60.2691 56.3976 60.6738ZM55.4285 44.7935C55.4285 44.6386 55.928 44.259 55.7981 44.7236C55.8431 45.0083 55.5434 44.7935 55.4285 44.7935ZM55.4285 60.9985C55.2836 61.2033 55.4285 60.9535 55.4685 60.9335C55.7182 60.9335 55.5234 60.9785 55.4285 60.9985ZM55.0888 61.498C54.4444 61.498 55.1837 61.3281 55.2836 61.2432C55.3336 61.3781 55.1637 61.448 55.0888 61.498ZM54.6892 46.8116C54.5393 46.7367 54.2496 46.7367 54.3095 46.4719C54.3695 46.2072 55.2836 45.8026 54.9789 46.437C54.909 46.5619 54.849 46.7517 54.6892 46.8116ZM53.0507 62.7968C52.8509 62.8517 52.9458 62.567 52.9808 62.4871C53.4426 62.1799 53.9269 61.9077 54.4294 61.6728L54.4744 61.7078C54.0747 62.1674 53.4154 62.2623 53.0507 62.7968ZM54.1297 45.0183C53.9399 45.0183 53.7101 44.9683 53.76 45.2431C53.76 45.4079 53.795 45.6077 53.6901 45.7426C53.544 45.6813 53.4049 45.6043 53.2755 45.5128C53.5852 45.4179 53.6352 44.6187 54.1297 45.0133V45.0183ZM53.9399 44.5188C53.9066 44.5216 53.873 44.5167 53.8419 44.5046C53.8107 44.4925 53.7827 44.4734 53.76 44.4488C53.805 44.3639 53.9648 44.4488 53.9399 44.5188ZM54.6892 43.8394C54.7491 43.8694 54.919 43.7844 54.869 43.9143C54.7291 43.9143 54.3695 44.0742 54.6892 43.8394ZM57.2468 43.0601C57.1319 43.1251 57.1569 43.2649 57.022 43.2749C56.987 43.2749 56.9321 43.2749 56.9171 43.2399C56.9571 43.0701 57.1319 43.1251 57.2468 43.0601ZM58.5506 42.5006C58.6005 42.6455 58.4357 42.5506 58.3658 42.5756C58.4207 42.5756 58.4807 42.3857 58.5506 42.5006ZM60.1141 39.7232C60.254 39.7232 60.4039 39.6583 60.4838 39.8331C60.4039 39.913 60.1941 40.1578 60.0442 39.978C59.9493 39.8931 60.0442 39.7732 60.1141 39.7232ZM60.5188 40.9771C60.7436 40.9771 61.0183 40.5474 61.1532 40.9771C61.1532 41.0869 61.0433 41.087 61.0033 41.1669C60.7136 41.027 60.4588 41.1169 60.1141 41.1069C60.1141 40.9521 60.1141 40.6074 60.3689 40.6474C60.4239 40.7573 60.4239 40.8921 60.5188 40.9771ZM52.5412 46.1423C52.3713 46.2871 52.1066 46.2472 51.8718 46.2472C51.8368 45.8176 52.681 46.3471 52.6211 45.7776C52.9708 45.7776 52.4912 45.9724 52.5412 46.1423ZM46.7915 51.6022C46.8565 51.5722 46.8914 51.6371 46.9364 51.6671C46.9863 51.797 46.7915 51.762 46.7615 51.7121C46.7316 51.6621 46.7615 51.6471 46.7915 51.6022ZM78.8268 40.8572C78.9267 40.8572 79.0466 40.8572 79.0466 40.9671C79.0466 41.077 78.9616 41.1069 78.8617 41.1569C78.7768 41.077 78.7019 40.9521 78.8268 40.8572ZM88.1181 60.2192C87.5237 59.8695 88.1731 59.28 87.9733 58.8954C87.6336 58.8954 87.5237 58.5307 87.2639 58.3959C87.4238 59.4749 87.8634 61.3931 86.7394 62.1574C86.5247 62.2481 86.2913 62.2854 86.059 62.2663C85.8268 62.2472 85.6026 62.1721 85.4056 62.0475C84.7513 61.2282 84.2018 60.2092 83.3625 59.6647C83.2457 59.2058 83.0937 58.7565 82.908 58.3209C82.5933 57.3968 81.5742 57.0172 80.9098 56.4527C80.3603 55.2388 81.1896 53.8501 80.77 52.7211C80.5951 51.7221 79.636 51.1776 79.4212 50.2235C79.2264 49.8888 79.0466 50.3384 78.9217 50.4882C78.7418 50.5382 78.6419 50.4133 78.517 50.3733C78.3672 50.4532 78.4671 50.6231 78.4371 50.743C78.2573 50.9728 77.9775 50.9628 77.7727 51.1076C77.538 51.8769 76.7187 51.6871 76.2492 52.1067C76.1642 52.1766 76.2492 52.3165 76.1742 52.3964C76.2542 52.856 76.6738 52.6412 77.0684 52.7062C77.2382 52.9659 76.7187 53.2806 77.0234 53.5554C77.468 53.6902 77.7078 52.916 78.1374 53.1407C78.1624 53.2806 78.0874 53.3556 78.0575 53.4804C77.503 53.6753 77.3082 54.2098 77.1333 54.7043C77.0184 54.7043 76.8836 54.7043 76.7986 54.6244C76.2347 53.9088 75.6132 53.2405 74.9404 52.6262C74.4022 52.6398 73.8804 52.8137 73.4418 53.1258L73.3319 53.0159C73.2819 51.8569 73.4118 50.6431 73.3668 49.4792L73.4767 49.3743C73.8813 49.7439 73.8963 49.0495 74.1861 48.9696C74.3209 48.7099 74.1361 48.585 73.9713 48.4701C74.1361 48.0655 74.6856 47.9156 74.8155 47.541C74.7206 47.2912 74.5457 47.5809 74.4109 47.4311C74.6496 46.9473 75.0411 46.5558 75.5248 46.3171C75.5248 46.3171 75.6597 46.392 75.5648 46.427C75.5398 46.5419 75.4399 46.6318 75.5648 46.7317C75.8695 46.7317 75.8845 46.402 76.0343 46.2322C76.3041 45.7626 77.5629 45.8575 76.9835 45.1632C76.6588 45.0233 76.7337 45.6227 76.419 45.7127C76.1093 45.7127 76.0044 46.0373 75.7446 46.0873C75.6597 45.8425 76.0294 45.7626 76.0843 45.5878C75.6447 45.3929 75.5848 46.0274 75.2201 46.2122C75.0303 46.387 75.0303 46.7517 74.7206 46.7417C74.5957 47.0314 73.7714 47.4111 74.3409 47.6309C73.7415 47.8706 73.5017 48.9846 72.7424 48.59C72.5726 48.8447 72.5376 48.54 72.3827 48.56C72.3119 48.6145 72.2596 48.6895 72.2329 48.7748C72.7674 49.0895 71.9132 49.0046 71.9631 49.4092C71.7683 49.4092 71.4986 49.5791 71.4636 49.2993C71.5335 49.1944 71.6384 49.1694 71.7184 49.0845C71.6484 48.7398 72.0231 48.3952 71.6135 48.1903C71.8333 47.6109 72.0031 48.53 72.2828 48.1154C72.5776 48.4251 72.8573 48.0105 73.172 48.0255C73.147 47.6109 73.5716 47.1813 72.9972 46.9215C72.8323 46.7867 72.6775 47.0464 72.5376 46.8466C72.5194 46.7724 72.528 46.6941 72.5618 46.6256C72.5956 46.5571 72.6525 46.5027 72.7224 46.4719C72.9672 47.1963 73.5367 46.6818 73.9563 46.6268C73.9563 46.3521 74.211 46.1273 73.9962 45.8925C74.0098 45.8094 74.0546 45.7347 74.1215 45.6837C74.1884 45.6326 74.2722 45.609 74.3559 45.6177C74.7206 45.6677 74.291 45.9474 74.4358 46.1173C74.6856 45.9874 74.8904 45.7276 75.1352 45.6177C75.2701 45.1182 75.9095 44.9384 76.0593 44.5088C76.7337 44.3789 77.2532 43.8044 77.7428 43.2999C78.0412 43.1604 78.2978 42.9451 78.4871 42.6755C78.3772 42.2409 79.0366 42.5806 78.8567 42.1759C78.8675 42.1236 78.8906 42.0746 78.9242 42.0331C78.9578 41.9915 79.0008 41.9586 79.0498 41.9371C79.0987 41.9156 79.152 41.9061 79.2053 41.9094C79.2586 41.9127 79.3104 41.9287 79.3563 41.9561C79.7209 41.8213 79.4012 41.4866 79.606 41.2468C79.7409 41.1869 79.7809 41.3767 79.9008 41.3567C80.1924 41.1722 80.4666 40.9615 80.72 40.7273C80.7135 40.5918 80.7452 40.4573 80.8114 40.3389C80.8777 40.2206 80.9758 40.1232 81.0947 40.0579C81.2195 39.8081 80.8898 39.8481 80.9098 39.6533C81.3394 38.7591 82.4884 38.6242 82.843 37.825C82.8576 37.8058 82.8639 37.7816 82.8607 37.7577C82.8574 37.7338 82.8447 37.7122 82.8255 37.6976C82.8063 37.683 82.7821 37.6767 82.7582 37.68C82.7343 37.6832 82.7127 37.6959 82.6982 37.7151C82.1237 37.6302 82.1587 38.2746 81.6991 38.4244C81.5492 39.0039 80.8998 38.8241 80.5002 39.0239C80.8399 39.938 79.651 39.4585 79.606 40.1578C79.7359 40.2877 80.0306 40.0729 80.1355 40.3426C79.9457 40.8422 79.4612 40.3426 79.1365 40.6174C78.9466 40.6673 78.9616 40.2577 78.7718 40.5075C78.4321 40.7373 78.4421 40.2277 78.517 40.0579C78.3272 39.7782 78.7069 39.5284 78.7718 39.2736C78.9467 39.1388 79.1664 39.0239 79.0665 38.7741C78.7818 38.7741 78.7468 39.0938 78.4771 39.1188C78.4421 39.1887 78.3672 39.2936 78.4421 39.3735C77.8976 39.6783 78.7968 39.928 78.1774 40.1878C77.9076 40.5375 78.3322 40.7922 78.4771 41.012C78.1774 41.1169 77.7727 40.6573 77.4331 40.9771C77.3581 40.8522 77.4331 40.6573 77.3581 40.5375C77.458 40.2877 77.6129 40.5375 77.7328 40.5375C77.7957 40.4967 77.8442 40.437 77.8711 40.367C77.898 40.297 77.9021 40.2203 77.8826 40.1478C77.6628 40.3526 77.5779 39.973 77.2832 40.0829C77.1133 39.8381 77.5529 39.8381 77.6628 39.6433C77.8981 39.0141 78.3426 38.485 78.9217 38.1447C78.9504 38.0131 79.02 37.894 79.1205 37.8043C79.2209 37.7146 79.3472 37.6589 79.4811 37.6451C79.7609 37.4653 79.3812 37.3204 79.4062 37.1156C79.681 36.7909 80.1306 36.5062 80.3653 36.1615C80.4303 35.9068 80.71 35.8568 80.75 35.5921C80.4403 35.7319 79.9058 35.7519 79.9207 36.1615C79.656 36.2015 79.4562 36.6611 79.1814 36.4163C79.1814 36.3164 79.1415 36.1915 79.2214 36.1216C79.5611 35.3123 80.0906 34.8977 80.5901 34.2283C80.1405 33.9935 80.0906 34.9477 79.5511 35.0476C79.3363 35.0226 79.2863 34.7628 79.3713 34.593C79.7826 34.2084 80.1542 33.7833 80.4802 33.3242C80.9198 33.544 80.8199 32.7897 81.2595 32.9245C81.6791 32.5399 82.2586 32.2002 82.4534 31.6557C82.848 31.6557 82.4534 31.9854 82.6382 32.1552C83.2726 32.0004 82.4534 31.5258 83.0878 31.311C83.2027 31.2211 83.4275 31.4809 83.3825 31.2311C83.0578 31.0862 83.4275 30.8515 83.3825 30.6716C82.5277 31.1877 81.7406 31.8086 81.0397 32.5199C80.8549 32.44 81.0097 32.1852 80.8549 32.1253C80.71 32.2152 80.8049 32.415 80.75 32.5199C80.6501 32.7197 80.4203 33.0194 80.1955 32.8996C79.8358 32.5199 79.8158 33.1144 79.4412 33.0494C79.2614 33.4041 78.8617 33.6089 78.6319 33.9036C78.0825 33.9036 78.0075 34.5081 77.6329 34.7179C77.3931 34.6329 77.2432 34.7179 77.0284 34.6429C77.0284 34.4581 76.8736 34.4481 76.7986 34.568C76.8386 35.2923 76.2292 35.4722 75.8345 35.9867C75.7796 35.9867 75.6997 36.0616 75.6497 35.9867C75.6674 35.8685 75.7195 35.7582 75.7994 35.6693C75.8794 35.5805 75.9836 35.5172 76.0993 35.4872C76.0993 35.2873 76.3491 35.1625 76.3591 35.0825C76.3228 34.908 76.2364 34.7479 76.1104 34.6219C75.9843 34.4958 75.8242 34.4094 75.6497 34.3732C75.6285 34.3347 75.6165 34.2918 75.6147 34.2478C75.6128 34.2039 75.6212 34.1601 75.6391 34.1199C75.657 34.0798 75.684 34.0443 75.7179 34.0163C75.7518 33.9883 75.7917 33.9686 75.8345 33.9586C76.0943 34.2883 76.0094 33.8387 76.2492 33.8137C76.5439 34.0285 76.1742 34.2233 76.1393 34.4431C76.369 34.613 76.6038 34.2983 76.7986 34.1384C77.2282 33.7987 77.1084 34.613 77.508 34.4032C77.4181 34.1934 77.1583 33.7638 76.8386 33.7438C76.7237 33.549 76.5689 33.3591 76.8386 33.2143C77.6478 33.6039 77.2083 32.2502 78.0275 32.6198C78.2023 32.6198 78.2473 32.8096 78.2123 32.9595C78.4071 32.9595 78.3972 32.7397 78.4771 32.6198C79.2614 32.445 78.0275 31.9305 78.8118 31.6557C79.2464 31.6207 79.1365 31.336 79.2614 31.0563C78.7219 31.0063 78.7069 31.9105 78.0974 31.4709C77.9076 31.4059 77.8976 31.2111 78.0974 31.1062C78.4221 31.2111 78.4671 30.8215 78.6569 30.6916C78.6569 30.5917 78.7318 30.5118 78.6569 30.4318C78.582 30.4318 78.4871 30.5967 78.3922 30.6916C78.2972 30.7865 78.1524 30.6267 78.0225 30.6466C77.8976 30.8365 77.6878 30.9813 77.6578 31.2111C77.5679 31.331 77.8626 31.4609 77.6578 31.5808C77.1583 31.1812 77.1583 31.9804 76.7837 32.0803C76.6288 32.0204 76.5938 31.8655 76.4939 31.7456C76.394 31.6257 76.6188 31.4409 76.419 31.311C76.2142 30.9614 76.3341 31.4809 76.1992 31.5258C76.0643 31.5708 75.8945 31.6108 75.8245 31.4909C75.8695 31.351 76.0344 31.2661 76.0443 31.1212C76.0034 31.0793 75.9515 31.0499 75.8945 31.0363C75.5798 31.0962 75.5098 31.4909 75.4199 31.7456C75.6997 31.5009 75.7596 32.0703 76.0443 31.9404C76.0443 32.4849 75.6997 31.7906 75.5448 32.2302C75.1252 32.415 75.345 31.8305 75.0453 31.7306C75.0453 31.6816 75.0258 31.6346 74.9911 31.5999C74.9565 31.5653 74.9095 31.5458 74.8604 31.5458C74.8114 31.5458 74.7644 31.5653 74.7298 31.5999C74.6951 31.6346 74.6756 31.6816 74.6756 31.7306C74.236 31.7956 74.5857 31.9155 74.7855 31.8855C74.8017 32.0694 74.7899 32.2546 74.7505 32.435C74.251 31.8855 74.0762 32.8896 73.5167 32.6648C73.3918 33.6638 73.0172 32.0404 72.8473 32.7697C73.3468 32.7247 73.127 33.494 73.6616 33.2143C73.5866 33.3841 73.3618 33.7138 73.1171 33.7138C72.9672 33.6588 73.0371 33.514 72.9572 33.4241C72.9572 33.6589 72.7274 33.8187 72.6974 34.0485C72.2279 34.1034 72.8173 33.7338 72.6275 33.549C72.2978 33.3891 72.128 33.7987 71.8133 33.8736C71.5885 33.4391 71.1639 33.9636 70.8442 33.6588C70.5395 33.6588 70.7143 33.1593 70.5045 33.1593C70.4346 33.5989 69.8351 33.4341 69.8351 33.8986C69.7652 33.8986 69.6653 33.8986 69.6153 33.8237C69.5654 33.7488 69.4355 33.8537 69.4704 33.9786C69.4704 34.573 70.1898 33.9786 70.2897 34.4781C70.3396 34.618 70.1748 34.7279 70.0699 34.7378C69.8701 34.5131 69.6653 34.8128 69.4704 34.623C69.1807 34.623 68.8111 34.3432 68.8011 34.8428C68.6312 35.1625 69.0908 34.9926 69.0908 35.2624C68.8011 35.677 68.3815 35.1375 68.0917 35.0775C67.9918 35.2374 67.757 35.4172 67.797 35.662C67.7121 35.7519 67.6172 35.627 67.5322 35.5921V35.5471C67.1026 35.7269 67.4923 36.2964 67.0327 36.4862C66.6681 36.4562 65.8488 36.7959 66.1835 36.0416C65.8788 36.1365 65.9737 36.5412 65.9088 36.7859C65.689 36.9558 65.7139 37.1856 65.7639 37.4553C65.604 37.5602 65.4242 37.7351 65.2644 37.4553C64.6949 37.5103 65.2644 37.9549 65.0346 38.1996C64.8647 38.2346 64.7199 38.4344 64.535 38.3095C64.5051 38.2146 64.7299 38.1747 64.605 38.0797C64.605 37.9149 64.4152 37.9698 64.3102 37.8949C63.9706 37.9848 63.8956 38.3095 63.7558 38.5293C63.6459 38.4994 63.5559 38.3445 63.446 38.4194C63.0764 38.7541 63.6658 38.7341 63.6658 39.0938C63.6658 39.4535 63.1663 39.5434 62.9215 39.5933C62.8866 39.4435 63.0464 38.9989 62.7767 38.9989C62.1572 39.3236 62.8666 39.6433 62.7417 40.0779C62.5269 40.1762 62.3268 40.304 62.1473 40.4575C62.2272 40.9571 61.7176 40.5674 61.5578 40.8971C61.2531 41.052 61.3979 40.5025 61.0583 40.5674C61.0283 40.3327 61.4079 40.4176 61.313 40.1778C60.9833 39.958 61.1182 40.5774 60.7286 40.4176C60.6984 40.395 60.6756 40.3639 60.6632 40.3283C60.6507 40.2927 60.6491 40.2542 60.6586 40.2178C60.6911 40.148 60.7415 40.0881 60.8047 40.0443C60.8679 40.0004 60.9416 39.9741 61.0183 39.968C61.0805 39.815 61.1831 39.6817 61.315 39.5823C61.447 39.4829 61.6034 39.4211 61.7676 39.4035C61.9374 39.4435 62.2671 39.3735 62.1323 39.1837C61.8925 39.3835 61.7027 39.0938 61.4729 39.2936C61.313 38.894 61.9724 38.9339 62.0523 38.5143C62.407 38.1497 62.9565 38.3045 63.3611 38.1147C63.6159 37.5852 63.0714 38.2096 62.9565 37.845C63.0314 37.755 63.1413 37.6352 63.2512 37.7351C63.4311 37.6252 63.7857 37.6901 63.8107 37.4054C63.5005 37.346 63.1818 37.346 62.8716 37.4054C62.467 37.6252 62.372 38.3645 61.7676 38.1147C61.5428 38.1697 61.5678 38.4044 61.4729 38.5543C61.3033 38.5668 61.133 38.543 60.9733 38.4844C60.6686 38.6043 60.7036 38.934 60.4438 39.1138C60.0842 39.2337 59.8044 39.8681 59.3748 39.6133C59.195 39.8231 59.5447 39.923 59.5197 40.1129C59.6546 40.6124 59.205 41.1619 58.8103 41.4916C58.7604 41.4916 58.6855 41.4916 58.6705 41.4516C58.5656 41.3767 58.5206 41.3967 58.4457 41.4916C58.3708 41.5865 58.4857 41.6864 58.5206 41.7863C58.4752 41.8439 58.4176 41.8907 58.352 41.9235C58.2863 41.9563 58.2143 41.9743 58.141 41.9761C57.8962 41.3417 57.6714 42.2109 57.2868 42.091C57.022 42.2958 57.5066 42.4807 57.2518 42.6755C56.9471 42.4657 56.5325 42.7954 56.1778 42.6755C56.4226 43.2549 55.5634 43.0351 55.6783 43.5746C55.4829 43.556 55.293 43.5 55.1188 43.4098C55.1937 42.6405 56.2377 42.9103 56.4975 42.1659C56.4787 42.1316 56.4533 42.1013 56.4227 42.0768C56.3921 42.0524 56.357 42.0343 56.3193 42.0236C56.2816 42.0129 56.2422 42.0098 56.2033 42.0145C56.1644 42.0193 56.1269 42.0317 56.0929 42.0511C55.0189 43.5497 53.0107 42.9852 51.3373 43.1201C51.2923 43.17 51.2174 43.17 51.1824 43.235V46.2322C50.8877 46.8216 49.8886 47.1014 50.4331 47.8607C50.7878 47.8607 50.6679 48.3002 50.9327 48.3602C50.9327 48.8248 50.5081 48.4401 50.3033 48.6549C50.1684 48.575 50.2133 48.4901 50.1234 48.4002C50.2033 48.0005 50.4082 48.555 50.573 48.2952C50.3532 48.3302 50.2833 48.0805 50.1234 48.0255C49.9636 47.9706 49.9736 48.1704 49.8986 48.2553C50.0835 48.4401 49.7987 48.6899 49.7887 48.8048C50.0585 48.8048 50.2233 49.0695 50.533 49.0346C50.6879 48.9297 50.9327 48.7648 51.0825 48.8397L51.0076 53.4155C50.3532 53.2157 49.6439 52.3465 48.9245 53.0508C48.1802 53.3905 47.6357 54.6344 46.7416 54.1548C46.5917 53.8151 46.242 53.7452 46.1022 53.4155C46.5417 53.0958 46.8814 53.6952 47.361 53.6153C47.5608 53.4055 47.9854 53.3506 47.9255 52.9759C47.4659 52.3615 47.5808 51.3974 46.7815 50.9228C46.2514 50.641 45.6544 50.5092 45.0549 50.5418C44.4554 50.5743 43.8761 50.77 43.3797 51.1076C43.5645 51.1476 43.8043 51.0327 43.9092 51.2175C43.3724 51.5311 42.8843 51.9216 42.4605 52.3765C42.6803 52.3765 42.8702 52.1617 43.0999 52.2316C42.8052 52.6212 42.2507 52.866 42.1009 53.3356C42.2957 53.3356 42.4905 53.2157 42.6504 53.2307C41.2617 54.1448 39.5083 55.2288 38.749 56.8773C39.4683 56.2179 40.2476 55.4436 41.1268 55.2438C39.848 56.4177 38.1995 57.5317 37.4552 59.1152C38.3693 58.301 39.2885 57.3868 40.3475 57.0621C39.1721 58.0703 38.1237 59.2176 37.2254 60.4789C37.2254 60.5339 37.0606 60.8536 37.2254 60.6738C37.6142 60.2224 38.0669 59.8303 38.5692 59.5098C37.3003 60.9984 36.3013 62.8367 36.2663 64.9448C36.4992 64.0963 36.8907 63.2996 37.4202 62.597C37.2554 63.2464 36.8607 64.0956 36.8607 64.9098C37.2356 63.8798 37.8305 62.9439 38.6041 62.1674C38.2994 63.0815 37.5551 63.9857 37.5251 64.9847C37.8369 64.3151 38.2367 63.6902 38.714 63.1265C38.774 63.1265 38.8189 63.0466 38.8589 63.1265C38.569 63.7166 38.3992 64.3584 38.3593 65.0147C38.8017 63.8084 39.5589 62.7425 40.5523 61.9276C40.7122 61.8227 40.922 61.5529 41.1018 61.7128C40.867 62.1424 40.9569 62.7568 40.877 63.2114C41.1767 63.2763 41.0768 63.631 41.1767 63.8508C41.5064 63.7909 41.4065 64.1655 41.4814 64.3503C41.7962 64.4253 42.2557 65.1946 42.4456 64.6101C42.5854 64.5002 42.6853 64.6501 42.7902 64.75C42.9351 65.2495 43.3847 65.2495 43.8193 65.2745C44.2139 64.7749 44.5436 65.6092 45.0381 65.2745C45.0781 65.0797 44.9083 64.9598 44.8583 64.7749C44.3588 64.4502 43.4296 64.4203 42.8951 63.8108C42.6763 63.5748 42.532 63.2794 42.4805 62.9616C42.4805 62.552 42.9051 62.517 43.1499 62.3622C43.5495 62.592 43.1499 63.1165 43.4796 63.2863C43.4796 63.5761 43.7344 63.641 43.9791 63.5611C44.149 63.641 44.114 63.8308 44.159 63.9557C44.159 64.73 44.8183 63.9107 45.0182 64.5152C45.4228 64.5801 45.5477 65.0697 45.7974 65.2995H46.4718C46.9813 65.1738 47.5063 65.1234 48.0304 65.1496C47.9904 64.9598 47.7456 64.8649 47.7306 64.6501C47.5658 63.9957 46.8415 64.3603 46.3519 64.2754C45.7974 64.0556 45.6276 63.4112 45.243 62.9766C45.5976 62.1524 46.1471 61.2382 45.7425 60.2941C45.5527 59.9794 45.0631 59.9045 45.0032 59.4849C45.1156 59.3142 45.2627 59.1692 45.4348 59.059C45.6069 58.9489 45.8002 58.8761 46.0022 58.8455C46.6067 58.6556 46.7515 57.9763 47.0363 57.5467C47.4359 57.5816 47.9055 57.4617 48.1952 57.7715C48.1777 58.0453 48.0727 58.3062 47.8955 58.5158C48.1103 58.7605 48.6248 58.291 48.6048 58.8105C48.8045 58.7425 48.9787 58.6153 49.1044 58.4458C49.8187 57.137 47.9055 57.1021 47.5059 56.2129V56.068C47.9305 55.7633 48.0853 55.3787 48.46 55.029C48.7597 54.5295 48.8696 53.7951 49.504 53.6153C49.7138 53.6603 49.8187 53.905 49.9186 54.0499C50.1934 54.4146 50.623 54.2847 50.9826 54.1948C51.0775 54.2847 50.9826 54.4296 51.0625 54.5095V63.4162C51.057 63.4531 51.061 63.4909 51.0741 63.5258C51.0872 63.5608 51.109 63.5918 51.1375 63.616C51.3323 63.616 51.3673 63.4612 51.5121 63.3463C51.697 63.1465 51.9068 63.3812 52.0766 63.4612C52.3314 63.5061 52.5761 63.2214 52.736 63.3013C52.4413 64.0356 51.8918 63.3013 51.4022 63.646C50.9676 64.1455 50.9726 64.4453 51.0126 65.5093L73.3119 65.4693V54.6493C73.152 54.0749 73.6965 54.4745 73.8764 54.0899C74.1511 54.1398 74.2061 53.8601 74.3759 53.6852C74.5757 53.6153 74.6756 53.7802 74.8754 53.7951C75.315 54.4595 75.7896 55.0989 76.2142 55.7633C76.374 55.8682 76.6488 55.8482 76.6887 56.093C76.3141 56.8573 75.2751 56.8123 75.0553 57.6566C75.0553 58.1561 74.9653 58.8105 75.4349 58.9703C75.6997 58.7106 76.434 59.0453 76.3241 58.4458C75.9145 58.4908 75.9145 57.9763 75.8745 57.6566C75.9018 57.5979 75.9446 57.5478 75.9983 57.5117C76.052 57.4756 76.1146 57.4548 76.1792 57.4517C76.1792 57.4817 76.3491 57.4817 76.2541 57.5467C76.459 57.6266 76.7537 57.6965 76.9935 57.7715C77.1483 58.8455 78.3722 58.3959 78.7768 59.3C79.3862 59.9544 78.0225 60.2142 78.0625 60.7986C78.1674 61.7228 78.532 62.7318 78.562 63.5211C78.2173 64.5901 76.9935 64.1006 76.3291 64.7C76.364 64.9198 76.2292 65.1995 76.439 65.3344C76.5988 65.3894 76.6538 65.2345 76.7687 65.1846C76.9211 65.2671 77.0904 65.3137 77.2636 65.3206C77.4368 65.3275 77.6092 65.2947 77.7677 65.2245C78.3772 65.4243 78.7668 64.8848 79.2663 64.7C79.4961 64.9098 79.1465 65.0497 79.1515 65.2595C79.3413 65.4643 79.621 65.1396 79.7859 65.3994C80.0606 65.3694 80.5452 65.5093 80.7849 65.2995C80.9032 65.2227 81.0438 65.1879 81.1842 65.2006C81.3246 65.2133 81.4566 65.2727 81.5592 65.3694C81.7191 64.9198 82.3785 64.69 82.3385 64.2105C82.888 64.2105 82.1637 63.4362 82.838 63.5211C82.7531 62.9267 83.3875 62.2922 82.6182 61.9026C82.5791 61.7766 82.5757 61.6422 82.6083 61.5143C82.641 61.3865 82.7084 61.2702 82.8031 61.1783C83.1977 61.2832 83.1028 61.7977 83.1827 62.1424C83.6823 62.2273 83.3476 62.9516 83.7622 63.1714C83.987 62.8018 84.2118 63.2364 84.3966 63.3563C84.5814 63.4762 84.7413 63.3912 84.7762 63.2114C85.0909 63.3912 85.3107 64.0856 85.7353 63.7709C86.3148 64.1955 86.3248 63.2713 86.9342 63.5561C87.1141 63.5561 87.3638 63.2663 87.0791 63.1365C87.2689 62.8417 87.7135 62.7318 87.5786 62.3572C88.0782 62.0325 87.8883 61.7627 87.8484 61.3232C88.4978 61.0184 87.6586 60.5988 88.1431 60.1942L88.1181 60.2192ZM67.5173 35.2773C67.5173 35.1724 67.3974 35.1125 67.3374 35.2424C67.4124 35.3273 67.4473 35.3273 67.4873 35.4222C67.4873 35.3823 67.4873 35.3123 67.5173 35.2773Z" fill="white"/>
<path d="M63.3261 56.3424C63.1213 56.4423 62.9415 56.6172 62.7667 56.3724C62.5108 56.0782 62.311 55.7396 62.1772 55.3733C62.0473 55.2285 62.0723 55.4483 62.0174 55.4832C61.8525 56.0827 62.5169 56.5173 62.372 56.772C62.2272 57.0268 61.9324 58.0608 61.6976 57.4964C61.5722 57.2517 61.4321 57.0148 61.278 56.787C61.4179 56.3374 61.7776 55.8529 61.5478 55.3733C61.3986 55.7035 61.209 56.014 60.9833 56.2975C60.8235 56.4673 60.5287 56.6422 60.3489 56.4124C60.2946 56.3154 60.2662 56.2062 60.2662 56.0952C60.2662 55.9841 60.2946 55.8749 60.3489 55.778C60.5437 55.778 60.7885 56.0827 61.0233 55.8629C61.5927 55.5082 61.0233 54.9537 61.2031 54.4442C61.1551 54.151 61.0003 53.8858 60.7685 53.6999C60.4988 53.6399 60.1341 53.605 59.9842 53.8797C59.9192 53.9733 59.8815 54.0832 59.8753 54.197C59.8692 54.3108 59.8948 54.424 59.9493 54.5241C60.0742 54.639 60.239 54.7189 60.204 54.8938C60.146 54.9515 60.0705 54.9887 59.9893 54.9995C59.9081 55.0103 59.8256 54.9943 59.7545 54.9537C59.5516 54.7839 59.4068 54.5548 59.3406 54.2986C59.2743 54.0425 59.2897 53.772 59.3848 53.525C59.4992 53.2455 59.7126 53.0179 59.9842 52.8856C60.1993 52.8379 60.4243 52.866 60.6209 52.9653C60.8176 53.0645 60.9739 53.2288 61.0632 53.4301C61.1986 53.8082 61.3657 54.1742 61.5628 54.5241C61.7676 54.2943 61.5977 53.9347 61.5628 53.6649C61.1905 53.1459 61.0282 52.5053 61.1082 51.8716C61.1684 51.7211 61.2152 51.5657 61.2481 51.407C61.363 51.0473 61.7026 49.3689 62.1322 50.8226C62.397 51.402 62.9015 52.5659 62.3071 53.2853C62.1922 53.6299 61.8375 54.1145 62.0723 54.5241C62.2721 54.3643 62.342 53.9447 62.4869 53.6649C62.5639 53.4604 62.6875 53.2767 62.8479 53.1284C63.0083 52.9801 63.2012 52.8714 63.4111 52.8107C63.7907 52.7757 64.0954 53.1404 64.2303 53.4301C64.3907 53.7847 64.4068 54.1878 64.2753 54.5541C64.0954 54.8238 63.7757 55.1136 63.451 54.8938C63.3012 54.5691 63.8057 54.664 63.7907 54.3343C63.8197 54.2007 63.8018 54.0611 63.7399 53.9392C63.678 53.8173 63.576 53.7204 63.451 53.6649C63.3052 53.6171 63.1481 53.6164 63.0019 53.663C62.8557 53.7097 62.7279 53.8012 62.6368 53.9247C62.1672 54.3793 62.4969 54.8388 62.392 55.3733L62.7067 55.8729C63.0114 56.1476 63.2062 55.4283 63.3761 55.7879C63.3761 55.7879 63.5409 56.2375 63.3411 56.3474L63.3261 56.3424Z" fill="#417C79" fill-opacity="0.6"/>
</svg>
