<svg width="51" height="89" viewBox="0 0 51 89" fill="none" xmlns="http://www.w3.org/2000/svg">
<path d="M23.4172 12.3574H30.8446V13.8086H24.8986V18.4543H30.8446V19.9058H24.8986V27.1819H23.4172V12.3574Z" fill="#417C79"/>
<path d="M38.0547 15.5073L35.5146 20.8731H40.5826L38.0547 15.5073ZM38.2417 12.3572L45.1552 27.1821H43.5549L41.2232 22.3044H34.8369L32.5276 27.1821H30.8748L37.8788 12.3572H38.2417Z" fill="#417C79"/>
<path d="M7.42449 43.0184V48.7023H9.26144C10.3452 48.7023 11.1393 48.5966 11.6443 48.3849C12.1487 48.1733 12.554 47.8423 12.8603 47.3921C13.1665 46.9419 13.3201 46.4548 13.3201 45.931C13.3201 45.2724 13.1043 44.6981 12.674 44.2074C12.2433 43.7171 11.6517 43.3814 10.8985 43.1999C10.3934 43.0788 9.51508 43.0184 8.26271 43.0184H7.42449ZM7.42449 36.7801V41.5267H8.27265C9.30304 41.5267 10.0603 41.431 10.5451 41.2396C11.0296 41.0482 11.4135 40.7459 11.6962 40.3325C11.979 39.9195 12.1207 39.4608 12.1207 38.9568C12.1207 38.2784 11.8832 37.7461 11.4087 37.3595C10.9338 36.9734 10.1781 36.7801 9.14107 36.7801H7.42449ZM5.97333 35.3289H8.89589C10.0717 35.3289 10.9751 35.4684 11.6068 35.7471C12.2385 36.0262 12.7373 36.4543 13.1032 37.0323C13.4695 37.6098 13.6525 38.2515 13.6525 38.9568C13.6525 39.6154 13.492 40.2151 13.171 40.7559C12.8503 41.2966 12.3787 41.7351 11.757 42.0712C12.5271 42.3329 13.1202 42.6403 13.5354 42.9933C13.9503 43.346 14.2742 43.7727 14.5047 44.273C14.7359 44.7736 14.8518 45.3162 14.8518 45.9008C14.8518 47.0899 14.4167 48.096 13.5468 48.9191C12.6766 49.7419 11.5092 50.1534 10.0448 50.1534H5.97333V35.3289Z" fill="#417C79"/>
<path d="M19.3466 36.7802V41.8191L21.9003 41.8397C22.8894 41.8397 23.6213 41.7459 24.0954 41.5577C24.5703 41.3696 24.9403 41.0689 25.2064 40.6558C25.4719 40.2424 25.6047 39.7804 25.6047 39.2695C25.6047 38.7721 25.47 38.3204 25.2013 37.914C24.9318 37.5076 24.5788 37.2168 24.1414 37.0423C23.7037 36.8674 22.9767 36.7802 21.9607 36.7802H19.3466ZM17.8652 35.329H20.818C22.4639 35.329 23.5793 35.3968 24.1639 35.5311C25.0441 35.7325 25.7594 36.165 26.3104 36.8277C26.8612 37.4899 27.1369 38.3057 27.1369 39.2746C27.1369 40.0819 26.9469 40.7917 26.5674 41.4035C26.1879 42.0161 25.6452 42.4788 24.9399 42.791C24.2342 43.1039 23.2601 43.2636 22.0173 43.2703L27.3486 50.1535H25.5153L20.1841 43.2703H19.3466V50.1535H17.8652V35.329Z" fill="#417C79"/>
<path d="M30.0998 35.3288H31.5811V50.1533H30.0998V35.3288Z" fill="#417C79"/>
<path d="M16.1924 71.5099C17.4835 70.2524 18.1295 68.7026 18.1295 66.8597C18.1295 65.6828 17.856 64.6178 17.3082 63.6659C16.7608 62.7146 15.9896 61.9526 14.9953 61.3813C14.001 60.8096 12.9529 60.5235 11.8511 60.5235C10.7427 60.5235 9.69793 60.8077 8.71687 61.3761C7.73618 61.9438 6.9701 62.7135 6.41902 63.6857C5.8683 64.6569 5.59294 65.7381 5.59294 66.9278C5.59294 68.6897 6.20072 70.1773 7.41701 71.3914C8.63294 72.6051 10.101 73.2114 11.8209 73.2114C12.9967 73.2114 14.072 72.9257 15.0468 72.3537L11.7458 68.1625H13.5441L16.1924 71.5099ZM17.1094 72.6695L19.3086 75.4485H17.4846L15.9752 73.532C14.7641 74.279 13.4002 74.6526 11.8835 74.6526C9.68873 74.6526 7.83631 73.9002 6.32625 72.3953C4.81582 70.89 4.06079 69.0692 4.06079 66.933C4.06079 65.5087 4.40646 64.1868 5.09781 62.9672C5.78989 61.7479 6.73119 60.7956 7.92282 60.1101C9.11482 59.425 10.4224 59.0823 11.846 59.0823C14.0415 59.0823 15.8928 59.8329 17.4003 61.3345C18.9074 62.8361 19.6613 64.6823 19.6613 66.8723C19.6613 68.0146 19.4548 69.0593 19.0417 70.0065C18.6283 70.9541 17.9841 71.8412 17.1094 72.6695Z" fill="#417C79"/>
<path d="M22.7151 59.4552H24.1964V68.4043C24.1964 69.4657 24.2167 70.1275 24.2572 70.3897C24.3308 70.9742 24.5023 71.4627 24.7711 71.8559C25.0398 72.2491 25.4529 72.5782 26.0106 72.8436C26.5683 73.109 27.1293 73.2415 27.6936 73.2415C28.184 73.2415 28.6545 73.1374 29.1043 72.9294C29.5545 72.721 29.9308 72.432 30.233 72.0624C30.5356 71.6932 30.7572 71.2463 30.8982 70.7221C30.9991 70.3458 31.0495 69.5731 31.0495 68.4043V59.4552H32.5308V68.4043C32.5308 69.7278 32.4016 70.7979 32.1428 71.614C31.8844 72.4306 31.3668 73.141 30.5908 73.7455C29.8148 74.3503 28.8761 74.6526 27.7743 74.6526C26.5782 74.6526 25.5537 74.3669 24.7004 73.7959C23.8471 73.225 23.2761 72.4692 22.9871 71.5283C22.8056 70.9507 22.7151 69.9092 22.7151 68.4043V59.4552Z" fill="#417C79"/>
<path d="M36.1892 59.4552H44.6849V60.9063H37.6706V65.5521H44.6245V67.0036H37.6706V72.8285H44.6245V74.2797H36.1892V59.4552Z" fill="#417C79"/>
<path d="M42.7827 87.5669H7.59631C4.19776 87.5669 1.43312 84.8022 1.43312 81.4037V80.6299H48.9459V81.4037C48.9459 84.8022 46.1812 87.5669 42.7827 87.5669ZM7.59631 1.43349H42.7827C46.1812 1.43349 48.9459 4.19813 48.9459 7.59668V7.95782H1.43312V7.59668C1.43312 4.19813 4.19776 1.43349 7.59631 1.43349ZM14.3529 30.1482L23.3282 9.3913H48.9459V30.1482H14.3529ZM1.43312 30.1482V9.3913H21.7666L12.791 30.1482H1.43312ZM48.9459 79.1968H1.43312V55.3347H48.9459V79.1968ZM1.43312 31.5813H48.9459V53.9012H1.43312V31.5813ZM42.7827 -1.1488e-07H7.59631C3.40776 -1.1488e-07 0 3.40776 0 7.59668V81.4037C0 85.5922 3.40776 89 7.59631 89H42.7827C46.9716 89 50.379 85.5922 50.379 81.4037V7.59668C50.379 3.40776 46.9716 -1.1488e-07 42.7827 -1.1488e-07" fill="#417C79"/>
<path d="M5.04529 12.3755H5.66779V18.0027H8.0643V18.6038H5.04529V12.3755Z" fill="#417C79"/>
<path d="M11.5168 13.6988L10.4496 15.9532H12.5789L11.5168 13.6988ZM11.5952 12.3754L14.5001 18.6038H13.8275L12.848 16.5544H10.165L9.19465 18.6038H8.50037L11.4428 12.3754H11.5952Z" fill="#417C79"/>
<path d="M4.6414 21.6635H13.8335C14.1512 21.6635 14.7693 21.5457 14.935 21.2291C15.1047 20.9055 14.791 20.8131 14.5043 20.8131H5.31213C4.99443 20.8131 4.37634 20.9309 4.21069 21.2475C4.04135 21.5711 4.35463 21.6635 4.6414 21.6635Z" fill="#417C79"/>
</svg>