<svg width="33" height="35" viewBox="0 0 33 35" fill="none" xmlns="http://www.w3.org/2000/svg">
<path d="M22 32.8122C20.4178 32.8122 18.871 32.3142 17.5554 31.381C16.2398 30.4478 15.2145 29.1214 14.609 27.5696C14.0035 26.0177 13.845 24.3102 14.1537 22.6627C14.4624 21.0153 15.2243 19.5021 16.3431 18.3144C17.462 17.1266 18.8874 16.3178 20.4393 15.9901C21.9911 15.6624 23.5997 15.8306 25.0615 16.4734C26.5233 17.1162 27.7727 18.2047 28.6518 19.6013C29.5308 20.9979 30 22.6399 30 24.3196C30 26.572 29.1571 28.7321 27.6569 30.3248C26.1566 31.9175 24.1217 32.8122 22 32.8122ZM22 17.9501C20.8133 17.9501 19.6533 18.3236 18.6666 19.0235C17.6799 19.7234 16.9109 20.7182 16.4567 21.8821C16.0026 23.0459 15.8838 24.3266 16.1153 25.5622C16.3468 26.7978 16.9182 27.9327 17.7574 28.8235C18.5965 29.7143 19.6656 30.3209 20.8295 30.5667C21.9933 30.8125 23.1997 30.6863 24.2961 30.2042C25.3925 29.7221 26.3295 28.9057 26.9888 27.8583C27.6481 26.8108 28 25.5793 28 24.3196C28 22.6303 27.3679 21.0102 26.2426 19.8157C25.1174 18.6211 23.5913 17.9501 22 17.9501Z" fill="#417C79"/>
<path d="M23.59 27.5043L21 24.7548V20.0732H23V23.8843L25 26.0075L23.59 27.5043Z" fill="#417C79"/>
<path d="M29 7.33423C29 6.77113 28.7893 6.23109 28.4142 5.83292C28.0391 5.43475 27.5304 5.21106 27 5.21106H23V3.08789H21V5.21106H13V3.08789H11V5.21106H7C6.46957 5.21106 5.96086 5.43475 5.58579 5.83292C5.21071 6.23109 5 6.77113 5 7.33423V28.5659C5 29.129 5.21071 29.669 5.58579 30.0672C5.96086 30.4654 6.46957 30.6891 7 30.6891H11V28.5659H7V7.33423H11V9.45739H13V7.33423H21V9.45739H23V7.33423H27V13.7037H29V7.33423Z" fill="#417C79"/>
</svg>
