<svg id="Calque_1" data-name="Calque 1" xmlns="http://www.w3.org/2000/svg" viewBox="0 0 51 89"><rect width="51" height="89" rx="10.86" style="fill:#eff4f4"/><path d="M23.42,12.36h7.42v1.45H24.9v4.64h5.94v1.46H24.9v7.27H23.42Z" style="fill:#417c79"/><path d="M38.05,15.51l-2.54,5.36h5.07Zm.19-3.15,6.92,14.82H43.55L41.22,22.3H34.84l-2.31,4.88H30.87l7-14.82Z" style="fill:#417c79"/><path d="M7.42,43V48.7H9.26a6.34,6.34,0,0,0,2.38-.32,2.69,2.69,0,0,0,1.22-1,2.58,2.58,0,0,0-.19-3.18,3.31,3.31,0,0,0-1.77-1A13.1,13.1,0,0,0,8.26,43Zm0-6.24v4.75h.85a6.72,6.72,0,0,0,2.28-.29,2.46,2.46,0,0,0,1.15-.91A2.38,2.38,0,0,0,12.12,39a2,2,0,0,0-.71-1.6,3.57,3.57,0,0,0-2.27-.58ZM6,35.33H8.9a6.92,6.92,0,0,1,2.71.42A3.26,3.26,0,0,1,13.1,37,3.5,3.5,0,0,1,13.65,39a3.46,3.46,0,0,1-.48,1.8,3.51,3.51,0,0,1-1.41,1.31,5.55,5.55,0,0,1,1.78.92,3.79,3.79,0,0,1,1,1.28,3.73,3.73,0,0,1,.35,1.63,4,4,0,0,1-1.3,3A4.91,4.91,0,0,1,10,50.15H6Z" style="fill:#417c79"/><path d="M19.35,36.78v5l2.55,0a6.36,6.36,0,0,0,2.2-.28,2.35,2.35,0,0,0,1.11-.9,2.58,2.58,0,0,0,.39-1.39,2.41,2.41,0,0,0-.4-1.36A2.31,2.31,0,0,0,24.14,37,6.57,6.57,0,0,0,22,36.78Zm-1.48-1.45h2.95a18.29,18.29,0,0,1,3.34.2,3.83,3.83,0,0,1,2.15,1.3,3.7,3.7,0,0,1,.83,2.44,3.94,3.94,0,0,1-.57,2.13,3.48,3.48,0,0,1-1.63,1.39,7.6,7.6,0,0,1-2.92.48l5.33,6.88H25.52l-5.34-6.88h-.83v6.88H17.87Z" style="fill:#417c79"/><path d="M30.1,35.33h1.48V50.15H30.1Z" style="fill:#417c79"/><path d="M16.19,71.51a6.57,6.57,0,0,0,1.12-7.84A6.12,6.12,0,0,0,15,61.38a6.28,6.28,0,0,0-3.15-.86,6.12,6.12,0,0,0-3.13.86,6,6,0,0,0-2.3,2.31,6.46,6.46,0,0,0-.83,3.24,6,6,0,0,0,1.83,4.46,6,6,0,0,0,4.4,1.82,6.2,6.2,0,0,0,3.23-.86l-3.3-4.19h1.79Zm.92,1.16,2.2,2.78H17.48L16,73.53a7.65,7.65,0,0,1-4.1,1.12A7.57,7.57,0,0,1,6.33,72.4a7.45,7.45,0,0,1-2.27-5.47,7.92,7.92,0,0,1,1-4,7.52,7.52,0,0,1,2.82-2.86,7.79,7.79,0,0,1,3.93-1,7.57,7.57,0,0,1,5.55,2.25,7.52,7.52,0,0,1,2.26,5.54A7.86,7.86,0,0,1,19,70,8.31,8.31,0,0,1,17.11,72.67Z" style="fill:#417c79"/><path d="M22.72,59.46H24.2V68.4a18.63,18.63,0,0,0,.06,2,3.29,3.29,0,0,0,.51,1.47,3,3,0,0,0,1.24,1,3.83,3.83,0,0,0,1.68.4,3.29,3.29,0,0,0,1.41-.31,3.15,3.15,0,0,0,1.13-.87,3.38,3.38,0,0,0,.67-1.34,11.15,11.15,0,0,0,.15-2.32V59.46h1.48V68.4a10.79,10.79,0,0,1-.39,3.21,4.37,4.37,0,0,1-1.55,2.14,4.47,4.47,0,0,1-2.82.9,5.4,5.4,0,0,1-3.07-.85A4.14,4.14,0,0,1,23,71.53a12.14,12.14,0,0,1-.27-3.13Z" style="fill:#417c79"/><path d="M36.19,59.46h8.49v1.45h-7v4.64h6.95V67H37.67v5.83h6.95v1.45H36.19Z" style="fill:#417c79"/><path d="M42.78,87.57H7.6A6.18,6.18,0,0,1,1.43,81.4v-.77H49v.77A6.18,6.18,0,0,1,42.78,87.57ZM7.6,1.43H42.78A6.18,6.18,0,0,1,49,7.6V8H1.43V7.6A6.18,6.18,0,0,1,7.6,1.43Zm6.75,28.72,9-20.76H49V30.15Zm-12.92,0V9.39H21.77l-9,20.76ZM49,79.2H1.43V55.33H49ZM1.43,31.58H49V53.9H1.43ZM42.78,0H7.6A7.61,7.61,0,0,0,0,7.6V81.4A7.61,7.61,0,0,0,7.6,89H42.78a7.61,7.61,0,0,0,7.6-7.6V7.6A7.61,7.61,0,0,0,42.78,0" style="fill:#417c79"/><path d="M5.05,12.38h.62V18H8.06v.6h-3Z" style="fill:#417c79"/><path d="M11.52,13.7,10.45,16h2.13Zm.08-1.32,2.9,6.22h-.67l-1-2.05H10.16l-1,2.05H8.5l2.94-6.22Z" style="fill:#417c79"/><path d="M4.64,21.66h9.19c.32,0,.94-.11,1.11-.43s-.15-.42-.44-.42H5.31c-.32,0-.93.12-1.1.44S4.35,21.66,4.64,21.66Z" style="fill:#417c79"/></svg>