<svg version="1.1" xmlns="http://www.w3.org/2000/svg" x="0" y="0" viewBox="0 0 51 89" style="enable-background:new 0 0 51 89" xml:space="preserve"><style>.st0{fill:#417c79}</style><path class="st0" d="M23.4 12.4h7.4v1.4h-5.9v4.6h5.9v1.5h-5.9v7.3h-1.5V12.4zM38 15.5l-2.5 5.4h5.1L38 15.5zm.2-3.1 6.9 14.8h-1.6l-2.3-4.9h-6.4l-2.3 4.9h-1.7l7-14.8h.4zM7.4 43v5.7h1.8c.8 0 1.6-.1 2.4-.3.5-.2.9-.6 1.2-1 .7-1 .6-2.3-.2-3.2-.5-.5-1.1-.9-1.8-1-.8-.2-1.7-.2-2.5-.2h-.9zm0-6.2v4.8h.9c.8 0 1.5-.1 2.3-.3.5-.2.9-.5 1.1-.9.3-.4.4-.8.4-1.3 0-.6-.2-1.2-.7-1.6-.7-.4-1.5-.6-2.3-.6l-1.7-.1zM6 35.3h2.9c.9 0 1.8.1 2.7.4.6.3 1.1.7 1.5 1.2a3.6 3.6 0 0 1 .1 3.8c-.3.6-.8 1-1.4 1.3.6.2 1.2.5 1.8.9.4.3.8.8 1 1.3.2.5.4 1.1.4 1.6 0 1.1-.5 2.2-1.3 3-1 .9-2.3 1.3-3.6 1.2H6V35.3zm13.4 1.5v5h2.5c.7 0 1.5-.1 2.2-.3.5-.2.8-.5 1.1-.9.3-.4.4-.9.4-1.4 0-.5-.1-1-.4-1.4-.3-.4-.6-.7-1.1-.8-.7-.2-1.4-.3-2.1-.2h-2.6zm-1.5-1.5h3c1.1 0 2.2 0 3.3.2.8.2 1.6.6 2.1 1.3.6.7.9 1.6.8 2.4 0 .7-.2 1.5-.6 2.1-.4.6-1 1.1-1.6 1.4-.9.4-1.9.6-2.9.6l5.3 6.9h-1.8l-5.3-6.9h-.8v6.9h-1.5V35.3zm12.2 0h1.5v14.8h-1.5V35.3zM16.2 71.5c2.1-2.1 2.5-5.3 1.1-7.8-.5-1-1.3-1.7-2.3-2.3a5.86 5.86 0 0 0-6.2 0c-1 .5-1.8 1.3-2.3 2.3-.6 1-.8 2.1-.8 3.2 0 1.7.6 3.3 1.8 4.5 1.2 1.2 2.7 1.8 4.4 1.8 1.1 0 2.3-.3 3.2-.9l-3.3-4.2h1.8l2.6 3.4zm.9 1.2 2.2 2.8h-1.8l-1.5-2c-1.2.8-2.7 1.1-4.1 1.1-2.1.1-4.1-.8-5.6-2.2a7.03 7.03 0 0 1-2.2-5.5A7.92 7.92 0 0 1 7.9 60a8.21 8.21 0 0 1 9.5 1.2 7.8 7.8 0 0 1 1.7 8.6 8.8 8.8 0 0 1-2 2.9zm5.6-13.2h1.5v8.9c0 .7 0 1.3.1 2 .1.5.2 1 .5 1.5.3.4.7.8 1.2 1 .5.3 1.1.4 1.7.4.5 0 1-.1 1.4-.3.4-.2.8-.5 1.1-.9.3-.4.5-.8.7-1.3.1-.8.2-1.5.1-2.3v-9h1.5v8.9c0 1.1-.1 2.2-.4 3.2-.3.9-.8 1.6-1.5 2.1-.8.6-1.8.9-2.8.9-1.1 0-2.2-.3-3.1-.8-.8-.5-1.4-1.3-1.7-2.3-.2-1-.3-2.1-.3-3.1v-8.9zm13.5 0h8.5V61h-7v4.6h7V67h-7v5.8h7v1.4h-8.4l-.1-14.7z"/><path class="st0" d="M42.8 87.6H7.6c-3.4 0-6.2-2.8-6.2-6.2v-.8H49v.8c0 3.4-2.8 6.2-6.2 6.2zM7.6 1.4h35.2c3.4 0 6.2 2.7 6.2 6.1V8H1.4v-.4c0-3.4 2.8-6.2 6.2-6.2zm6.8 28.7 9-20.8H49v20.8H14.4zm-13 0V9.4h20.3l-9 20.8-11.3-.1zM49 79.2H1.4V55.3H49v23.9zM1.4 31.6H49v22.3H1.4V31.6zM42.8 0H7.6A7.6 7.6 0 0 0 0 7.6v73.8C0 85.6 3.4 89 7.6 89h35.2c4.2 0 7.6-3.4 7.6-7.6V7.6C50.4 3.4 47 0 42.8 0"/><path class="st0" d="M5.1 12.4h.6V18h2.4v.6h-3v-6.2zm6.4 1.3L10.4 16h2.1l-1-2.3zm.1-1.3 2.9 6.2h-.7l-1-2h-2.7l-1 2h-.6l2.9-6.2h.2zm-7 9.3h9.2c.3 0 .9-.1 1.1-.4s-.1-.4-.4-.4H5.3c-.3 0-.9.1-1.1.4s.1.4.4.4z"/></svg>